<svg width="258" height="258" viewBox="0 0 258 258" fill="none" xmlns="http://www.w3.org/2000/svg">
<g filter="url(#filter0_d_299_6340)">
<circle opacity="0.5" cx="128.715" cy="124.715" r="120.715" fill="white"/>
</g>
<g filter="url(#filter1_d_299_6340)">
<circle opacity="0.5" cx="129.5" cy="124.5" r="91.5" fill="white"/>
</g>
<g opacity="0.5" filter="url(#filter2_d_299_6340)">
<circle cx="129" cy="125" r="59" fill="white"/>
</g>
<path d="M180 174.568C207.614 146.954 207.614 102.183 180 74.5683C152.386 46.9541 107.614 46.9541 80 74.5684C52.3858 102.183 52.3858 146.954 80 174.568C107.614 202.183 152.386 202.183 180 174.568Z" fill="#FFA755"/>
<path opacity="0.1" d="M166.998 64.2192C174.041 75.2108 178.122 88.2845 178.122 102.304C178.122 141.351 146.467 173.014 107.411 173.014C93.8483 173.014 81.1811 169.19 70.4219 162.57C82.9895 182.189 104.981 195.188 130.008 195.188C169.055 195.188 200.719 163.533 200.719 124.478C200.719 98.9856 187.231 76.6542 167.006 64.2109L166.998 64.2192Z" fill="#1A191D"/>
<path opacity="0.25" d="M68.9056 132.027C68.9056 95.7676 98.2964 66.3767 134.556 66.3767C155.751 66.3767 174.59 76.4225 186.594 92.0097C175.254 72.3328 154.009 59.085 129.67 59.085C93.4104 59.085 64.0195 88.4759 64.0195 124.735C64.0195 139.8 69.0963 153.678 77.6324 164.753C72.0827 155.122 68.9056 143.948 68.9056 132.035V132.027Z" fill="white"/>
<path d="M91.8692 131.213C90.9732 131.213 90.0939 130.815 89.5049 130.06C88.4846 128.757 88.7251 126.874 90.0275 125.854L100.223 117.907L89.6791 111.71C88.2523 110.872 87.7794 109.031 88.6173 107.604C89.4551 106.177 91.2967 105.704 92.7236 106.542L107.066 114.979C107.921 115.485 108.477 116.372 108.535 117.368C108.601 118.355 108.17 119.317 107.39 119.931L93.7107 130.591C93.1632 131.014 92.5162 131.221 91.8692 131.221V131.213Z" fill="#303030"/>
<path d="M168.145 131.213C167.498 131.213 166.851 131.006 166.303 130.583L152.624 119.923C151.844 119.309 151.413 118.355 151.479 117.36C151.546 116.373 152.093 115.477 152.948 114.971L167.291 106.534C168.717 105.696 170.551 106.169 171.397 107.596C172.235 109.023 171.762 110.856 170.335 111.702L159.791 117.899L169.987 125.846C171.289 126.866 171.53 128.75 170.509 130.052C169.92 130.807 169.033 131.205 168.145 131.205V131.213Z" fill="#303030"/>
<path d="M77.0655 98.4391C77.9448 98.2815 78.791 98.1404 79.6205 98.0077C81.4455 97.7091 83.171 97.4187 84.8467 97.0371C87.3519 96.4813 89.6249 95.8011 91.7983 94.9384C94.0878 94.0342 96.1866 92.9724 98.2273 91.6949C100.459 90.3261 102.566 88.667 104.515 87.0826C104.623 86.9913 104.781 86.983 104.905 87.0494C105.03 87.1241 105.096 87.2568 105.071 87.3978C104.648 90.0772 103.279 92.7401 101.106 95.1126C99.1315 97.2528 96.6097 98.9617 93.8141 100.057C91.1844 101.094 88.3225 101.583 85.502 101.492C85.3942 101.492 85.2864 101.484 85.1785 101.475C82.0262 101.293 79.2555 100.488 76.9328 99.0612C76.8084 98.9866 76.7503 98.8456 76.7752 98.7045C76.8001 98.5635 76.9162 98.4557 77.0572 98.4308L77.0655 98.4391Z" fill="#414042"/>
<path d="M182.94 98.4391C182.061 98.2815 181.215 98.1404 180.385 98.0077C178.56 97.7091 176.835 97.4187 175.159 97.0371C172.654 96.4813 170.381 95.8011 168.208 94.9384C165.918 94.0342 163.819 92.9724 161.779 91.6949C159.547 90.3261 157.44 88.667 155.491 87.0826C155.383 86.9913 155.225 86.983 155.101 87.0494C154.976 87.1241 154.91 87.2568 154.935 87.3978C155.358 90.0772 156.727 92.7401 158.9 95.1126C160.874 97.2528 163.396 98.9617 166.192 100.057C168.822 101.094 171.683 101.583 174.504 101.492C174.612 101.492 174.72 101.484 174.827 101.475C177.98 101.293 180.75 100.488 183.073 99.0612C183.198 98.9866 183.256 98.8456 183.231 98.7045C183.206 98.5635 183.09 98.4557 182.949 98.4308L182.94 98.4391Z" fill="#414042"/>
<path d="M154.375 136.117C155.254 136.117 156.083 136.515 156.639 137.204L166.204 149.091C167.208 150.344 167.009 152.169 165.764 153.173C164.512 154.176 162.687 153.977 161.683 152.733L154.599 143.932L144.619 158.888C144.08 159.693 143.176 160.182 142.205 160.182C141.235 160.182 140.33 159.701 139.791 158.888L130.019 144.255L120.247 158.888C119.708 159.693 118.804 160.182 117.833 160.182C116.862 160.182 115.958 159.693 115.419 158.888L105.44 143.932L98.3552 152.733C97.3515 153.986 95.5182 154.176 94.2738 153.173C93.0212 152.169 92.8304 150.336 93.8342 149.091L103.399 137.204C103.98 136.482 104.875 136.076 105.788 136.125C106.709 136.167 107.563 136.648 108.078 137.411L117.841 152.045L127.613 137.411C128.153 136.607 129.057 136.117 130.027 136.117C130.998 136.117 131.902 136.598 132.441 137.411L142.213 152.045L151.977 137.411C152.492 136.64 153.338 136.167 154.267 136.125C154.308 136.125 154.35 136.125 154.399 136.125L154.375 136.117Z" fill="#5E4939"/>
<defs>
<filter id="filter0_d_299_6340" x="0" y="0" width="257.43" height="257.431" filterUnits="userSpaceOnUse" color-interpolation-filters="sRGB">
<feFlood flood-opacity="0" result="BackgroundImageFix"/>
<feColorMatrix in="SourceAlpha" type="matrix" values="0 0 0 0 0 0 0 0 0 0 0 0 0 0 0 0 0 0 127 0" result="hardAlpha"/>
<feOffset dy="4"/>
<feGaussianBlur stdDeviation="4"/>
<feComposite in2="hardAlpha" operator="out"/>
<feColorMatrix type="matrix" values="0 0 0 0 0 0 0 0 0 0 0 0 0 0 0 0 0 0 0.1 0"/>
<feBlend mode="normal" in2="BackgroundImageFix" result="effect1_dropShadow_299_6340"/>
<feBlend mode="normal" in="SourceGraphic" in2="effect1_dropShadow_299_6340" result="shape"/>
</filter>
<filter id="filter1_d_299_6340" x="30" y="29" width="199" height="199" filterUnits="userSpaceOnUse" color-interpolation-filters="sRGB">
<feFlood flood-opacity="0" result="BackgroundImageFix"/>
<feColorMatrix in="SourceAlpha" type="matrix" values="0 0 0 0 0 0 0 0 0 0 0 0 0 0 0 0 0 0 127 0" result="hardAlpha"/>
<feOffset dy="4"/>
<feGaussianBlur stdDeviation="4"/>
<feComposite in2="hardAlpha" operator="out"/>
<feColorMatrix type="matrix" values="0 0 0 0 0 0 0 0 0 0 0 0 0 0 0 0 0 0 0.1 0"/>
<feBlend mode="normal" in2="BackgroundImageFix" result="effect1_dropShadow_299_6340"/>
<feBlend mode="normal" in="SourceGraphic" in2="effect1_dropShadow_299_6340" result="shape"/>
</filter>
<filter id="filter2_d_299_6340" x="62" y="62" width="134" height="134" filterUnits="userSpaceOnUse" color-interpolation-filters="sRGB">
<feFlood flood-opacity="0" result="BackgroundImageFix"/>
<feColorMatrix in="SourceAlpha" type="matrix" values="0 0 0 0 0 0 0 0 0 0 0 0 0 0 0 0 0 0 127 0" result="hardAlpha"/>
<feOffset dy="4"/>
<feGaussianBlur stdDeviation="4"/>
<feComposite in2="hardAlpha" operator="out"/>
<feColorMatrix type="matrix" values="0 0 0 0 0 0 0 0 0 0 0 0 0 0 0 0 0 0 0.1 0"/>
<feBlend mode="normal" in2="BackgroundImageFix" result="effect1_dropShadow_299_6340"/>
<feBlend mode="normal" in="SourceGraphic" in2="effect1_dropShadow_299_6340" result="shape"/>
</filter>
</defs>
</svg>
