<svg width="258" height="258" viewBox="0 0 258 258" fill="none" xmlns="http://www.w3.org/2000/svg">
<g filter="url(#filter0_d_299_4698)">
<circle opacity="0.5" cx="128.715" cy="124.715" r="120.715" fill="white"/>
</g>
<g filter="url(#filter1_d_299_4698)">
<circle opacity="0.5" cx="129.5" cy="124.5" r="91.5" fill="white"/>
</g>
<g opacity="0.5" filter="url(#filter2_d_299_4698)">
<circle cx="129" cy="125" r="59" fill="white"/>
</g>
<path d="M180 174.569C207.614 146.955 207.614 102.184 180 74.5693C152.386 46.9551 107.614 46.9551 80 74.5693C52.3858 102.184 52.3858 146.955 80 174.569C107.614 202.184 152.386 202.184 180 174.569Z" fill="#C4C058"/>
<path opacity="0.1" d="M166.994 64.2231C174.037 75.2147 178.118 88.2884 178.118 102.308C178.118 141.355 146.463 173.018 107.408 173.018C93.8444 173.018 81.1772 169.194 70.418 162.574C82.9856 182.193 104.977 195.192 130.004 195.192C169.051 195.192 200.715 163.537 200.715 124.482C200.715 98.9895 187.227 76.6581 167.002 64.2148L166.994 64.2231Z" fill="#1A191D"/>
<path opacity="0.5" d="M68.9017 132.03C68.9017 95.7705 98.2926 66.3797 134.552 66.3797C155.747 66.3797 174.586 76.4254 186.59 92.0127C175.25 72.3358 154.005 59.0879 129.666 59.0879C93.4065 59.0879 64.0156 88.4788 64.0156 124.738C64.0156 139.803 69.0925 153.681 77.6285 164.756C72.0788 155.125 68.9017 143.951 68.9017 132.038V132.03Z" fill="white"/>
<path d="M180 174.569C207.614 146.955 207.614 102.184 180 74.5693C152.386 46.9551 107.614 46.9551 80 74.5693C52.3858 102.184 52.3858 146.955 80 174.569C107.614 202.184 152.386 202.184 180 174.569Z" fill="#A5E9F2"/>
<path opacity="0.1" d="M166.994 64.2231C174.037 75.2147 178.118 88.2884 178.118 102.308C178.118 141.355 146.463 173.018 107.408 173.018C93.8444 173.018 81.1772 169.194 70.418 162.574C82.9856 182.193 104.977 195.192 130.004 195.192C169.051 195.192 200.715 163.537 200.715 124.482C200.715 98.9895 187.227 76.6581 167.002 64.2148L166.994 64.2231Z" fill="#1A191D"/>
<path opacity="0.5" d="M68.9017 132.03C68.9017 95.7705 98.2926 66.3797 134.552 66.3797C155.747 66.3797 174.586 76.4254 186.59 92.0127C175.25 72.3358 154.005 59.0879 129.666 59.0879C93.4065 59.0879 64.0156 88.4788 64.0156 124.738C64.0156 139.803 69.0925 153.681 77.6285 164.756C72.0788 155.125 68.9017 143.951 68.9017 132.038V132.03Z" fill="white"/>
<path d="M116.812 139.837C115.981 139.144 114.656 139.912 115.083 140.835C117.461 145.955 123.267 149.569 130.059 149.569C136.851 149.569 142.461 146.073 144.911 141.089C145.357 140.182 144.02 139.394 143.197 140.081C138.49 144.013 128.489 149.612 116.812 139.837Z" fill="#5E4939"/>
<path d="M109.157 111.923C109.157 116.775 106.826 120.708 103.948 120.708C101.069 120.708 98.7383 116.775 98.7383 111.923C98.7383 107.07 101.069 103.138 103.948 103.138C106.826 103.138 109.157 107.07 109.157 111.923Z" fill="#303030"/>
<path d="M161.259 111.924C161.259 116.776 158.928 120.708 156.049 120.708C153.171 120.708 150.84 116.776 150.84 111.924C150.84 107.071 153.171 103.139 156.049 103.139C158.928 103.139 161.259 107.071 161.259 111.924Z" fill="#303030"/>
<defs>
<filter id="filter0_d_299_4698" x="0" y="0" width="257.43" height="257.431" filterUnits="userSpaceOnUse" color-interpolation-filters="sRGB">
<feFlood flood-opacity="0" result="BackgroundImageFix"/>
<feColorMatrix in="SourceAlpha" type="matrix" values="0 0 0 0 0 0 0 0 0 0 0 0 0 0 0 0 0 0 127 0" result="hardAlpha"/>
<feOffset dy="4"/>
<feGaussianBlur stdDeviation="4"/>
<feComposite in2="hardAlpha" operator="out"/>
<feColorMatrix type="matrix" values="0 0 0 0 0 0 0 0 0 0 0 0 0 0 0 0 0 0 0.1 0"/>
<feBlend mode="normal" in2="BackgroundImageFix" result="effect1_dropShadow_299_4698"/>
<feBlend mode="normal" in="SourceGraphic" in2="effect1_dropShadow_299_4698" result="shape"/>
</filter>
<filter id="filter1_d_299_4698" x="30" y="29" width="199" height="199" filterUnits="userSpaceOnUse" color-interpolation-filters="sRGB">
<feFlood flood-opacity="0" result="BackgroundImageFix"/>
<feColorMatrix in="SourceAlpha" type="matrix" values="0 0 0 0 0 0 0 0 0 0 0 0 0 0 0 0 0 0 127 0" result="hardAlpha"/>
<feOffset dy="4"/>
<feGaussianBlur stdDeviation="4"/>
<feComposite in2="hardAlpha" operator="out"/>
<feColorMatrix type="matrix" values="0 0 0 0 0 0 0 0 0 0 0 0 0 0 0 0 0 0 0.1 0"/>
<feBlend mode="normal" in2="BackgroundImageFix" result="effect1_dropShadow_299_4698"/>
<feBlend mode="normal" in="SourceGraphic" in2="effect1_dropShadow_299_4698" result="shape"/>
</filter>
<filter id="filter2_d_299_4698" x="62" y="62" width="134" height="134" filterUnits="userSpaceOnUse" color-interpolation-filters="sRGB">
<feFlood flood-opacity="0" result="BackgroundImageFix"/>
<feColorMatrix in="SourceAlpha" type="matrix" values="0 0 0 0 0 0 0 0 0 0 0 0 0 0 0 0 0 0 127 0" result="hardAlpha"/>
<feOffset dy="4"/>
<feGaussianBlur stdDeviation="4"/>
<feComposite in2="hardAlpha" operator="out"/>
<feColorMatrix type="matrix" values="0 0 0 0 0 0 0 0 0 0 0 0 0 0 0 0 0 0 0.1 0"/>
<feBlend mode="normal" in2="BackgroundImageFix" result="effect1_dropShadow_299_4698"/>
<feBlend mode="normal" in="SourceGraphic" in2="effect1_dropShadow_299_4698" result="shape"/>
</filter>
</defs>
</svg>
