<svg width="232" height="253" viewBox="0 0 232 253" fill="none" xmlns="http://www.w3.org/2000/svg">
<circle cx="116" cy="116" r="116" fill="url(#paint0_linear_553_5772)"/>
<path d="M170.014 207.848C157.493 205.325 138.069 203.706 116.244 203.706C94.4193 203.706 74.995 205.325 62.4749 207.848H47.8516V242.172C47.8516 243.659 49.7455 245.069 53.1481 246.358C63.4879 250.257 87.8455 253 116.244 253C144.643 253 169 250.257 179.34 246.358C182.754 245.069 184.637 243.659 184.637 242.172V207.848H170.014Z" fill="#FFC8BD"/>
<path opacity="0.3" d="M184.637 242.172V207.848H170.014C157.493 205.325 138.069 203.706 116.244 203.706C94.4193 203.706 74.995 205.325 62.4749 207.848H47.8516V234.66C51.7607 232.523 55.7689 230.551 59.8762 228.821C78.6288 220.89 99.3195 217.31 119.581 219.326C139.842 221.342 159.619 229.053 175.398 241.941C176.984 243.241 178.536 244.618 179.99 246.094C182.974 244.882 184.637 243.56 184.637 242.172Z" fill="#DB9586"/>
<path d="M172.758 197.558C159.599 194.903 139.184 193.207 116.247 193.207C93.3096 193.207 72.8942 194.914 59.7354 197.558H44.3633V204.586C44.3633 206.15 46.3454 207.637 49.9351 208.992C60.8035 213.09 86.3943 215.976 116.247 215.976C146.099 215.976 171.69 213.09 182.558 208.992C186.148 207.637 188.13 206.15 188.13 204.586V197.558H172.758Z" fill="#DB9586"/>
<path d="M116.247 186.181C76.55 186.181 44.3633 191.281 44.3633 197.571C44.3633 199.135 46.3454 200.622 49.9351 201.977C60.8035 206.075 86.3943 208.961 116.247 208.961C146.099 208.961 171.69 206.075 182.558 201.977C186.148 200.622 188.13 199.135 188.13 197.571C188.13 191.281 155.943 186.181 116.247 186.181Z" fill="#FFC8BD"/>
<path d="M169.224 201.085C172.087 200.006 173.673 198.816 173.673 197.571C173.673 192.548 147.961 188.473 116.237 188.473C84.5127 188.473 58.8008 192.548 58.8008 197.571C58.8008 198.816 60.3864 200.006 63.2494 201.085C71.9265 197.803 92.386 195.501 116.226 195.501C140.066 195.501 160.525 197.803 169.202 201.085H169.224Z" fill="#DB9586"/>
<path d="M169.226 201.085C160.549 197.802 140.09 195.5 116.25 195.5C92.41 195.5 71.9505 197.802 63.2734 201.085C71.9505 204.367 92.41 206.67 116.25 206.67C140.09 206.67 160.549 204.367 169.226 201.085Z" fill="#824E42"/>
<path d="M166.646 119.448C163.75 121.354 134.041 143.925 128.105 201.447C129.052 204.3 134.283 201.447 134.283 201.447C134.283 201.447 139.073 141.072 168.87 121.112" fill="#1F8572"/>
<path d="M192.735 156.912C195.223 153.916 198.967 149.18 195.477 148.442C191.986 147.692 183.518 148.32 186.26 144.641C189.002 140.962 194.728 146.58 195.477 144.641C196.225 142.702 200.057 136.721 196.897 135.73C193.737 134.727 186.502 138.968 187.251 134.485C188 130.002 195.223 133.989 195.719 131.742C196.214 129.495 195.223 121.266 192.724 120.275C190.235 119.273 183.254 124.516 183.001 119.779C182.747 115.043 189.233 118.777 189.729 116.541C190.224 114.305 182.472 99.1252 171.152 120.176C171.152 120.176 162.068 111.562 154.349 116.541C147.874 121.024 148.369 129.748 149.867 129.506C151.364 129.264 157.09 122.742 160.438 124.229C163.808 125.728 165.823 130.013 161.088 131.257C156.353 132.502 149.47 130.508 148.92 134.496C148.568 137.04 150.362 137.856 151.717 138.12C151.078 138.263 150.495 138.803 150.616 140.334C150.869 143.474 149.118 144.355 151.86 144.663C154.602 144.972 165.569 132.26 165.812 137.988C166.054 143.716 155.593 142.912 155.846 146.811C156.099 150.711 158.335 151.702 158.335 151.702C158.335 151.702 156.705 156.384 160.009 156.659C163.312 156.934 166.803 149.697 168.047 153.068C169.291 156.439 164.314 158.19 165.052 160.68C165.801 163.169 167.794 164.921 169.534 164.921C171.273 164.921 174.764 153.938 176.757 158.19C178.75 162.431 171.527 164.183 173.266 166.176C175.006 168.17 184.729 168.919 186.469 172.654C187.967 173.403 187.714 168.919 189.707 165.427C191.7 161.935 193.693 159.435 193.197 158.19C192.702 156.945 185.72 161.131 187.46 156.67C189.2 152.209 190.202 159.942 192.691 156.945L192.735 156.912ZM168.719 126.895C167.86 127.865 166.23 127.81 165.085 126.785C163.94 125.761 163.719 124.152 164.578 123.183C165.437 122.214 167.067 122.269 168.212 123.293C169.357 124.318 169.578 125.926 168.719 126.895ZM172.771 150.325C171.736 151.217 170.216 151.173 169.39 150.215C168.564 149.257 168.73 147.748 169.776 146.855C170.811 145.963 172.33 146.007 173.156 146.965C173.982 147.924 173.817 149.433 172.771 150.325ZM183.882 135.212C183.012 135.961 181.734 135.928 181.041 135.113C180.347 134.309 180.49 133.042 181.36 132.282C182.23 131.522 183.507 131.566 184.201 132.381C184.895 133.196 184.751 134.452 183.882 135.212Z" fill="#176355"/>
<path d="M169.452 118.765C169.452 118.765 179.351 136.819 181.873 155.975C183.216 157.991 182.963 141.402 172.678 117.52C171.126 115.978 169.287 115.846 169.452 118.765Z" fill="#1F8572"/>
<path d="M87.7389 69.3496C94.1036 70.4401 119.078 118.181 115.984 202.714C115.984 205.963 107.945 204.41 107.714 202.361C108.452 192.403 117.437 116.441 85.3164 72.2907" fill="#1F8572"/>
<path d="M123.814 86.2147C120.301 84.9589 101.482 86.2147 103.244 80.4426C104.995 74.6704 121.556 82.4474 122.558 79.9358C123.561 77.4243 117.79 64.1286 107.252 63.6219C98.8176 63.2254 87.9823 70.8591 83.9851 73.9214C83.2033 67.8409 81.067 57.8278 75.3851 55.5916C67.1044 52.3311 54.0667 63.6219 56.5664 63.3686C59.066 63.1152 75.1318 60.3613 73.8765 68.8873C72.6212 77.4243 60.5856 64.1176 52.0516 71.6522C46.7881 75.6729 45.2795 79.9358 47.0304 80.1892C48.7812 80.4426 62.3364 75.6729 60.8278 81.445C59.3193 87.2171 47.2836 83.9565 45.2795 87.2171C43.2754 90.4776 43.2754 96.2498 46.2816 96.9988C49.2877 97.7479 58.3172 88.7152 58.5705 95.9964C58.8237 103.278 46.7771 98.0012 46.7771 103.52C46.7771 109.039 51.7984 113.808 54.298 113.555C56.7976 113.302 61.929 103.52 64.1313 107.783C66.3336 112.046 56.3021 114.304 57.0509 117.818C57.7997 121.332 66.8291 126.597 66.5869 130.618C66.3336 134.628 69.593 132.127 72.6102 130.618C75.6163 129.109 86.6609 128.106 88.1585 126.355C89.667 124.604 82.8949 125.606 83.897 122.588C84.899 119.581 86.8481 118.071 88.3787 119.581C89.9203 121.09 91.4179 123.348 95.4371 123.348C99.4563 123.348 106.228 121.596 105.722 119.085C105.215 116.573 83.1482 118.831 88.665 111.308C94.1818 103.784 105.975 117.333 109.983 116.078C113.992 114.822 118.011 110.559 117.757 107.045C117.504 103.531 94.9306 102.529 95.6793 97.0098C96.4281 91.4911 104.962 92.0639 111.481 93.9035C118 95.7541 119.255 101.273 121.766 97.7589C124.276 94.2449 127.282 87.4704 123.77 86.2147H123.814ZM69.1856 83.3506C66.8401 83.3506 64.9461 82.0839 64.9461 80.5197C64.9461 78.9555 66.8401 77.6887 69.1856 77.6887C71.531 77.6887 73.425 78.9555 73.425 80.5197C73.425 82.0839 71.531 83.3506 69.1856 83.3506ZM67.0273 97.5936C64.6819 97.5936 62.7879 96.3269 62.7879 94.7627C62.7879 93.1985 64.6819 91.9317 67.0273 91.9317C69.3728 91.9317 71.2668 93.1985 71.2668 94.7627C71.2668 96.3269 69.3728 97.5936 67.0273 97.5936ZM94.5892 85.3444C91.4289 85.3444 88.8632 83.637 88.8632 81.5221C88.8632 79.4071 91.4289 77.6997 94.5892 77.6997C97.7495 77.6997 100.315 79.4071 100.315 81.5221C100.315 83.637 97.7495 85.3444 94.5892 85.3444ZM100.315 76.2787C98.8727 76.2787 97.6945 75.4966 97.6945 74.5272C97.6945 73.5579 98.8727 72.7758 100.315 72.7758C101.758 72.7758 102.936 73.5579 102.936 74.5272C102.936 75.4966 101.758 76.2787 100.315 76.2787ZM82.036 111.693C80.5935 111.693 79.4153 110.911 79.4153 109.942C79.4153 108.973 80.5935 108.191 82.036 108.191C83.4786 108.191 84.6568 108.973 84.6568 109.942C84.6568 110.911 83.4786 111.693 82.036 111.693ZM88.8632 97.3954C87.4207 97.3954 86.2425 96.6133 86.2425 95.6439C86.2425 94.6745 87.4207 93.8924 88.8632 93.8924C90.3057 93.8924 91.4839 94.6745 91.4839 95.6439C91.4839 96.6133 90.3057 97.3954 88.8632 97.3954Z" fill="#176355"/>
<path d="M81.0093 134.539C75.4705 131.18 70.3721 129.252 62.7852 136.72V135.883C62.7852 135.883 63.0384 123.788 52.7977 125.297C42.557 126.806 35.0691 145.962 37.9762 157.044C39.5398 158.388 49.5163 145.621 50.0668 151.834C50.6174 158.046 42.0505 156.03 41.2136 160.404C40.3767 164.777 41.8853 170.483 43.9004 170.318C45.9155 170.152 51.2891 159.566 52.2912 163.257C53.3042 166.958 46.411 168.974 47.4241 172.333C48.4371 175.693 58.6779 180.738 60.5278 180.903C62.3777 181.069 60.8692 175.186 63.8863 171.496C64.0515 170.989 55.4845 165.107 58.6779 163.268C61.8712 161.417 63.4899 166.969 64.9434 167.134C66.397 167.299 71.9358 163.268 71.264 161.252C70.5923 159.236 59.4487 156.713 64.9434 154.367C70.4272 152.01 70.5373 159.071 73.4223 158.057C76.3073 157.055 78.9941 153.354 78.4876 150.996C77.9811 148.65 66.5621 147.802 71.264 145.114C75.966 142.426 79.1593 149.653 81.0093 146.965C82.8592 144.277 86.5481 137.888 81.0093 134.528V134.539ZM65.9895 146.315C64.4479 146.315 63.1926 145.566 63.1926 144.64C63.1926 143.715 64.4479 142.955 65.9895 142.955C67.5311 142.955 68.7865 143.704 68.7865 144.64C68.7865 145.577 67.5311 146.315 65.9895 146.315ZM50.8266 159.346C49.7365 159.809 48.6243 159.655 48.349 158.994C48.0738 158.333 48.7345 157.429 49.8246 156.967C50.9147 156.504 52.0269 156.658 52.3022 157.319C52.5775 157.98 51.9168 158.883 50.8266 159.346Z" fill="#0A3029"/>
<path d="M44.1765 133.416C44.3307 133.603 44.3857 133.846 44.4298 134.077C44.7601 135.939 44.0884 137.922 44.7161 139.706C44.7932 139.926 44.9033 140.158 45.1235 140.257C45.3878 140.378 45.6851 140.257 45.9384 140.114C47.469 139.321 48.8784 138.307 50.1117 137.106C50.2659 136.963 50.4201 136.798 50.4971 136.6C50.5742 136.39 50.5632 136.159 50.5192 135.939C50.365 135.047 49.9025 134.242 49.5281 133.416C49.1537 132.59 48.8454 131.676 49.0546 130.795C49.2528 129.913 50.1338 129.131 51.0147 129.341C51.6644 129.495 52.1048 130.101 52.314 130.739C52.5233 131.367 52.5453 132.05 52.6884 132.7C52.7435 132.965 52.8756 133.262 53.1399 133.317C53.2941 133.339 53.4482 133.273 53.5804 133.207C54.9128 132.568 56.3553 132.149 57.8198 131.973C58.2382 131.918 58.6787 131.896 59.0641 132.072C59.4165 132.238 59.6808 132.546 59.923 132.854C60.7819 133.923 61.9822 135.707 62.8411 136.776C62.9732 136.049 62.6759 134.606 62.6539 133.879C62.2134 130.508 60.3855 124.174 52.7985 125.298C48.9335 125.871 45.4539 128.955 42.7891 133.174C43.2626 133.009 43.8682 133.031 44.1765 133.416Z" fill="#176355"/>
<path d="M42.9781 146.018C41.6347 143.76 41.1502 141.094 40.8639 138.484C40.8088 137.966 40.7648 137.448 40.7538 136.941C37.8247 143.275 36.5364 150.942 37.8798 156.637C37.8577 154.941 38.3423 153.244 39.08 151.702C40.0821 149.631 41.5356 147.814 42.9781 146.018Z" fill="#176355"/>
<path d="M62.543 133.196C62.543 133.196 68.9407 127.512 75.5916 131.995C82.2426 136.49 90.5343 140.301 106.005 201.69C106.446 204.554 100.279 204.18 99.9602 201.69C99.6408 199.201 83.4759 115.88 62.8733 136.831" fill="#1F8572"/>
<path d="M60.6398 133.824C56.8409 135.884 50.4762 154.346 55.4974 171.112C56.3343 171.277 51.5553 146.911 62.1154 135.84" fill="#0E4239"/>
<path d="M140.658 130.188C138.07 130.585 135.527 131.301 133.115 132.314C131.651 132.931 128.832 132.358 127.819 133.581C123.271 128.591 116.95 128.117 110.619 130.442C110.354 133.647 112.667 135.487 112.667 135.487C112.667 135.487 121.201 133.526 120.782 134.231C120.364 134.936 113.79 136.61 114.065 138.009C114.341 139.408 117.424 141.644 117.424 141.644L120.507 140.311L118.404 142.966C118.404 142.966 120.221 144.773 123.436 146.216C126.651 147.659 135.053 146.546 135.604 151.999C136.441 154.654 136.584 151.294 137.839 149.763C139.095 148.22 146.648 142.481 146.792 140.311C146.836 139.617 146.439 139.023 145.878 138.538C144.578 138.362 142.739 136.941 142.739 136.941C142.739 136.941 144.677 137.502 145.878 138.538C146.329 138.593 146.715 138.505 146.935 138.141C147.397 137.37 148.223 134.11 147.992 131.014C147.673 130.827 147.342 130.662 147.001 130.53C144.997 129.77 142.772 129.869 140.647 130.199L140.658 130.188Z" fill="#0A3029"/>
<path d="M145.888 138.527C144.688 137.491 142.75 136.93 142.75 136.93C142.75 136.93 144.589 138.362 145.888 138.527Z" fill="#176355"/>
<path d="M144.426 125.177C138.975 123.304 134.493 121.211 129.175 128.625C129.175 128.625 117.558 120.793 110.708 129.748C110.664 129.991 110.631 130.222 110.609 130.442C116.93 128.118 123.251 128.592 127.809 133.582C128.822 132.359 131.641 132.932 133.106 132.315C135.517 131.301 138.061 130.585 140.649 130.189C142.774 129.869 144.998 129.759 147.002 130.519C147.344 130.651 147.674 130.817 147.994 131.004C147.795 128.448 146.881 126.014 144.415 125.166L144.426 125.177Z" fill="#176355"/>
<path d="M129.967 127.588C129.967 127.588 119.814 126.476 118.57 201.238C117.942 204.774 122.974 201.943 122.974 201.943C122.974 201.943 123.844 136.863 129.967 127.577V127.588Z" fill="#1F8572"/>
<path d="M131.96 132.579C133.16 134.408 133.898 136.545 134.383 138.693C134.999 141.38 135.275 144.134 135.913 146.822C135.979 147.108 136.09 147.439 136.365 147.538C137.543 144.112 136.64 140.367 135.737 136.853C135.308 135.179 134.845 133.46 134.041 131.951C133.722 132.072 133.414 132.182 133.094 132.315C132.775 132.447 132.368 132.524 131.949 132.579H131.96Z" fill="#0E4239"/>
<path d="M88.8592 70.4852C89.3107 69.8022 87.2075 68.1389 83.4525 70.4852C79.6976 72.8315 71.1527 102.364 71.2628 114.767C72.474 116.023 75.4031 90.6765 88.8592 70.4852Z" fill="#1F8572"/>
<path d="M139.325 186.39C143.773 186.39 143.773 179.483 139.325 179.483C134.876 179.483 134.876 186.39 139.325 186.39Z" fill="#176355"/>
<path d="M138.25 185.166C135.816 189.407 133.504 193.725 131.301 198.098C131.059 198.594 130.806 199.112 130.817 199.662C130.828 200.378 131.301 201.017 131.885 201.425C132.468 201.832 133.162 202.042 133.845 202.251C134.054 202.317 134.274 202.372 134.473 202.317C134.781 202.229 134.935 201.899 135.067 201.612C137.115 196.842 139.152 192.073 141.201 187.314L138.261 185.166H138.25Z" fill="#1F8572"/>
<path d="M155.571 173.898C150.726 171.177 147.235 173.842 145.132 176.629C141.972 174.404 137.479 172.598 134.451 177.07C129.32 184.627 143.48 188.779 151.981 196.722C154.998 198.231 153.677 198.043 154.811 193.318C155.945 188.592 164.061 178.656 155.571 173.898Z" fill="#176355"/>
<path d="M144.207 176.024L145.143 176.641C149.559 178.536 151.056 192.404 151.475 191.831C151.904 191.258 150.517 174.295 144.207 176.024Z" fill="#1F8572"/>
<path d="M76.8802 190.982C75.4377 185.056 77.9263 178.359 82.8815 174.812C83.8835 174.096 85.0177 173.435 85.5353 172.322C85.6784 172.003 85.7225 171.65 85.7004 171.287C84.0927 170.67 82.1657 170.725 80.6021 171.485C78.0254 172.741 76.4067 175.451 75.735 178.238C75.4157 179.57 75.2835 180.925 75.2395 182.291C74.3585 185.299 74.5457 188.625 75.9883 191.401C76.1534 191.721 76.3516 192.04 76.682 192.183C76.7591 192.216 76.8251 192.227 76.9022 192.238C76.9903 191.853 76.9463 191.368 76.8582 190.971L76.8802 190.982Z" fill="#1F8572"/>
<path d="M88.2188 173.325C87.6462 172.356 86.7433 171.684 85.7082 171.287C85.7302 171.64 85.6862 172.003 85.543 172.323C85.0255 173.435 83.8913 174.096 82.8893 174.812C77.9231 178.359 75.4455 185.056 76.888 190.983C76.9871 191.368 77.0201 191.864 76.932 192.25C77.6147 192.349 78.2314 191.567 78.6058 190.906C79.5528 189.22 80.709 187.656 82.0304 186.257C83.8142 184.373 85.9174 182.776 87.371 180.639C88.8355 178.502 89.5402 175.561 88.2188 173.336V173.325Z" fill="#0A3029"/>
<path d="M84.3906 173.083C87.4739 173.865 89.478 176.751 91.2068 179.428C94.0367 183.823 96.8557 188.218 99.6856 192.613C99.1351 189.98 100.545 187.226 100.005 184.583C99.7187 183.217 98.9369 182.005 98.1 180.882C95.5123 177.412 87.0664 171.287 84.6439 171.287" fill="#1F8572"/>
<path d="M104.543 189.97C106.459 193.318 108.287 196.722 110.016 200.17C110.214 200.556 110.412 200.963 110.401 201.404C110.39 201.966 110.016 202.472 109.564 202.792C109.102 203.111 108.562 203.276 108.023 203.442C107.857 203.497 107.692 203.541 107.527 203.497C107.285 203.42 107.164 203.166 107.065 202.935C105.457 199.179 103.838 195.422 102.23 191.666L104.554 189.981L104.543 189.97Z" fill="#1F8572"/>
<path d="M90.8869 181.09C94.7079 178.953 97.4498 181.046 99.1125 183.249C101.601 181.498 105.147 180.077 107.536 183.59C111.578 189.55 100.412 192.821 93.7169 199.078C91.3384 200.268 92.3735 200.125 91.4815 196.401C90.5896 192.678 84.1919 184.846 90.8869 181.09Z" fill="#176355"/>
<path d="M99.8527 182.752L99.1149 183.237C95.6353 184.735 94.457 195.662 94.1157 195.211C93.7743 194.759 94.8755 181.386 99.8417 182.752H99.8527Z" fill="#1F8572"/>
<defs>
<linearGradient id="paint0_linear_553_5772" x1="107.055" y1="-8.47004e-08" x2="110.209" y2="231.894" gradientUnits="userSpaceOnUse">
<stop offset="0.15" stop-color="#FFDB6C"/>
<stop offset="1" stop-color="white"/>
</linearGradient>
</defs>
</svg>
