<svg width="248" height="305" viewBox="0 0 248 305" fill="none" xmlns="http://www.w3.org/2000/svg">
<path d="M204.366 235.447C185.08 231.562 155.159 229.067 121.54 229.067C87.9206 229.067 57.9993 231.562 38.7133 235.447H16.1875V288.321C16.1875 290.611 19.105 292.783 24.3463 294.768C40.2738 300.775 77.7942 305 121.54 305C165.285 305 202.806 300.775 218.733 294.768C223.991 292.783 226.892 290.611 226.892 288.321V235.447H204.366Z" fill="#FFC8BD"/>
<path opacity="0.3" d="M226.892 288.321V235.447H204.366C185.08 231.562 155.159 229.067 121.54 229.067C87.9206 229.067 57.9993 231.562 38.7133 235.447H16.1875V276.748C22.2091 273.456 28.3833 270.419 34.7102 267.755C63.5968 255.538 95.4688 250.023 126.679 253.128C157.89 256.234 188.354 268.111 212.661 287.964C215.103 289.966 217.495 292.088 219.734 294.361C224.331 292.495 226.892 290.459 226.892 288.321Z" fill="#DB9586"/>
<path d="M208.592 219.598C188.322 215.509 156.874 212.896 121.542 212.896C86.2095 212.896 54.7616 215.526 34.4917 219.598H10.8125V230.424C10.8125 232.833 13.8657 235.124 19.3954 237.211C36.1371 243.523 75.5572 247.969 121.542 247.969C167.526 247.969 206.946 243.523 223.688 237.211C229.218 235.124 232.271 232.833 232.271 230.424V219.598H208.592Z" fill="#DB9586"/>
<path d="M121.542 202.07C60.393 202.07 10.8125 209.927 10.8125 219.615C10.8125 222.025 13.8657 224.316 19.3954 226.403C36.1371 232.715 75.5572 237.161 121.542 237.161C167.526 237.161 206.946 232.715 223.688 226.403C229.218 224.316 232.271 222.025 232.271 219.615C232.271 209.927 182.69 202.07 121.542 202.07Z" fill="#FFC8BD"/>
<path d="M203.146 225.028C207.556 223.365 209.998 221.533 209.998 219.615C209.998 211.878 170.392 205.6 121.524 205.6C72.6556 205.6 33.0488 211.878 33.0488 219.615C33.0488 221.533 35.4914 223.365 39.9016 225.028C53.2678 219.972 84.7835 216.425 121.507 216.425C158.23 216.425 189.746 219.972 203.112 225.028H203.146Z" fill="#DB9586"/>
<path d="M203.148 225.028C189.782 219.971 158.266 216.425 121.543 216.425C84.8195 216.425 53.3037 219.971 39.9375 225.028C53.3037 230.084 84.8195 233.631 121.543 233.631C158.266 233.631 189.782 230.084 203.148 225.028Z" fill="#824E42"/>
<path d="M199.174 99.2764C194.713 102.212 148.949 136.98 139.807 225.588C141.265 229.983 149.322 225.588 149.322 225.588C149.322 225.588 156.701 132.585 202.601 101.839" fill="#1F8572"/>
<path d="M239.361 156.986C243.194 152.37 248.961 145.074 243.584 143.937C238.207 142.783 225.163 143.75 229.387 138.083C233.61 132.415 242.431 141.069 243.584 138.083C244.738 135.096 250.64 125.883 245.772 124.356C240.904 122.811 229.76 129.344 230.913 122.438C232.067 115.532 243.194 121.675 243.957 118.213C244.721 114.752 243.194 102.076 239.344 100.549C235.51 99.005 224.756 107.082 224.366 99.7855C223.976 92.4891 233.967 98.2414 234.73 94.7968C235.493 91.3523 223.552 67.97 206.115 100.396C206.115 100.396 192.121 87.1272 180.23 94.7968C170.257 101.703 171.02 115.142 173.327 114.768C175.634 114.395 184.454 104.35 189.61 106.641C194.801 108.948 197.905 115.549 190.611 117.466C183.317 119.384 172.716 116.313 171.868 122.455C171.325 126.375 174.09 127.63 176.176 128.038C175.193 128.258 174.294 129.09 174.48 131.448C174.87 136.284 172.173 137.642 176.397 138.117C180.621 138.592 197.515 119.011 197.888 127.834C198.261 136.658 182.147 135.419 182.537 141.426C182.927 147.432 186.371 148.96 186.371 148.96C186.371 148.96 183.86 156.171 188.949 156.595C194.038 157.019 199.415 145.871 201.331 151.064C203.248 156.256 195.581 158.954 196.718 162.789C197.871 166.623 200.941 169.321 203.621 169.321C206.301 169.321 211.678 152.404 214.748 158.954C217.819 165.487 206.691 168.185 209.371 171.256C212.051 174.327 227.029 175.481 229.709 181.233C232.016 182.387 231.626 175.481 234.696 170.102C237.766 164.723 240.836 160.871 240.073 158.954C239.31 157.036 228.556 163.484 231.236 156.612C233.916 149.74 235.459 161.652 239.293 157.036L239.361 156.986ZM202.366 110.747C201.043 112.24 198.533 112.155 196.769 110.577C195.004 108.999 194.665 106.522 195.988 105.029C197.311 103.535 199.822 103.62 201.586 105.198C203.35 106.776 203.689 109.254 202.366 110.747ZM208.608 146.838C207.014 148.213 204.673 148.145 203.401 146.669C202.129 145.193 202.383 142.868 203.994 141.493C205.589 140.119 207.93 140.187 209.202 141.663C210.474 143.139 210.22 145.464 208.608 146.838ZM225.723 123.558C224.383 124.712 222.415 124.661 221.347 123.405C220.278 122.167 220.499 120.215 221.839 119.044C223.179 117.874 225.146 117.942 226.215 119.197C227.284 120.453 227.063 122.387 225.723 123.558Z" fill="#176355"/>
<path d="M203.498 98.2239C203.498 98.2239 218.747 126.035 222.632 155.543C224.701 158.648 224.311 133.094 208.468 96.3065C206.077 93.931 203.244 93.7273 203.498 98.2239Z" fill="#1F8572"/>
<path d="M77.6262 22.1045C87.4304 23.7844 125.901 97.3248 121.134 227.539C121.134 232.545 108.752 230.152 108.396 226.996C109.532 211.657 123.373 94.6438 73.8945 26.635" fill="#1F8572"/>
<path d="M133.194 48.0831C127.783 46.1488 98.7949 48.0831 101.509 39.1918C104.206 30.3004 129.717 42.28 131.261 38.4112C132.804 34.5425 123.916 14.0618 107.683 13.2812C94.6901 12.6704 77.9993 24.4294 71.842 29.1466C70.6377 19.7801 67.347 4.35593 58.5945 0.911377C45.839 -4.11123 25.7557 13.2812 29.6061 12.891C33.4566 12.5007 58.2044 8.25864 56.2707 21.3921C54.337 34.5425 35.7973 14.0448 22.6516 25.6511C14.5437 31.8445 12.2199 38.4112 14.9169 38.8015C17.6139 39.1918 38.4943 31.8445 36.1705 40.7359C33.8467 49.6273 15.307 44.6047 12.2199 49.6273C9.13277 54.6499 9.13277 63.5412 13.7635 64.6951C18.3941 65.8489 32.3031 51.9349 32.6933 63.151C33.0834 74.367 14.5268 66.2392 14.5268 74.7403C14.5268 83.2414 22.2615 90.5886 26.1119 90.1984C29.9623 89.8081 37.8667 74.7403 41.2592 81.307C44.6516 87.8737 29.199 91.3522 30.3525 96.7651C31.5059 102.178 45.4149 110.289 45.0417 116.482C44.6516 122.659 49.6724 118.807 54.3201 116.482C58.9507 114.158 75.9638 112.613 78.2707 109.915C80.5945 107.218 70.1628 108.762 71.7063 104.112C73.2499 99.48 76.2522 97.1554 78.6099 99.48C80.9846 101.805 83.2915 105.283 89.4827 105.283C95.6739 105.283 106.106 102.585 105.325 98.7164C104.545 94.8477 70.5529 98.3262 79.0509 86.7369C87.549 75.1475 105.716 96.0185 111.89 94.0841C118.064 92.1497 124.255 85.583 123.865 80.1701C123.475 74.7573 88.7024 73.2131 89.8559 64.712C91.0093 56.2109 104.155 57.0933 114.197 59.927C124.238 62.7777 126.172 71.2788 130.039 65.8659C133.907 60.453 138.537 50.0175 133.126 48.0831H133.194ZM49.0448 43.6714C45.4319 43.6714 42.5144 41.72 42.5144 39.3106C42.5144 36.9011 45.4319 34.9497 49.0448 34.9497C52.6578 34.9497 55.5753 36.9011 55.5753 39.3106C55.5753 41.72 52.6578 43.6714 49.0448 43.6714ZM45.7202 65.6114C42.1073 65.6114 39.1898 63.66 39.1898 61.2505C39.1898 58.841 42.1073 56.8897 45.7202 56.8897C49.3332 56.8897 52.2507 58.841 52.2507 61.2505C52.2507 63.66 49.3332 65.6114 45.7202 65.6114ZM88.1766 46.7427C83.3085 46.7427 79.3563 44.1126 79.3563 40.8547C79.3563 37.5968 83.3085 34.9667 88.1766 34.9667C93.0448 34.9667 96.9969 37.5968 96.9969 40.8547C96.9969 44.1126 93.0448 46.7427 88.1766 46.7427ZM96.9969 32.7778C94.7749 32.7778 92.9599 31.573 92.9599 30.0798C92.9599 28.5866 94.7749 27.3819 96.9969 27.3819C99.219 27.3819 101.034 28.5866 101.034 30.0798C101.034 31.573 99.219 32.7778 96.9969 32.7778ZM68.8397 87.3307C66.6177 87.3307 64.8027 86.126 64.8027 84.6328C64.8027 83.1396 66.6177 81.9348 68.8397 81.9348C71.0618 81.9348 72.8767 83.1396 72.8767 84.6328C72.8767 86.126 71.0618 87.3307 68.8397 87.3307ZM79.3563 65.3059C77.1342 65.3059 75.3193 64.1012 75.3193 62.608C75.3193 61.1148 77.1342 59.91 79.3563 59.91C81.5783 59.91 83.3933 61.1148 83.3933 62.608C83.3933 64.1012 81.5783 65.3059 79.3563 65.3059Z" fill="#176355"/>
<path d="M67.2625 122.524C58.7305 117.349 50.877 114.379 39.19 125.884V124.594C39.19 124.594 39.5802 105.963 23.8053 108.288C8.03048 110.612 -3.50382 140.12 0.974202 157.19C3.38283 159.26 18.7506 139.594 19.5987 149.164C20.4468 158.734 7.25022 155.629 5.96109 162.366C4.67196 169.102 6.99578 177.891 10.0999 177.637C13.2039 177.382 21.4815 161.076 23.0251 166.76C24.5856 172.462 13.9672 175.567 15.5278 180.742C17.0883 185.917 32.8631 193.689 35.7128 193.943C38.5624 194.198 36.2386 185.137 40.8863 179.453C41.1407 178.672 27.9441 169.611 32.8631 166.777C37.7822 163.927 40.2756 172.479 42.5146 172.733C44.7536 172.988 53.2856 166.777 52.2509 163.672C51.2162 160.567 34.0505 156.681 42.5146 153.067C50.9618 149.436 51.1314 160.312 55.5755 158.751C60.0196 157.207 64.1584 151.506 63.3781 147.875C62.5979 144.26 45.0081 142.954 52.2509 138.814C59.4938 134.673 64.4128 145.804 67.2625 141.664C70.1121 137.524 75.7945 127.682 67.2625 122.507V122.524ZM44.126 140.663C41.7513 140.663 39.8176 139.509 39.8176 138.084C39.8176 136.659 41.7513 135.488 44.126 135.488C46.5007 135.488 48.4344 136.642 48.4344 138.084C48.4344 139.526 46.5007 140.663 44.126 140.663ZM20.7691 160.737C19.0898 161.449 17.3766 161.212 16.9526 160.194C16.5285 159.175 17.5463 157.784 19.2255 157.071C20.9048 156.359 22.618 156.596 23.042 157.614C23.4661 158.632 22.4483 160.024 20.7691 160.737Z" fill="#0A3029"/>
<path d="M10.522 120.793C10.7595 121.081 10.8443 121.454 10.9121 121.811C11.421 124.678 10.3863 127.733 11.3532 130.482C11.4719 130.821 11.6415 131.177 11.9808 131.33C12.3878 131.517 12.8458 131.33 13.236 131.109C15.5937 129.888 17.7649 128.327 19.6646 126.477C19.9021 126.256 20.1396 126.002 20.2583 125.696C20.377 125.374 20.3601 125.018 20.2922 124.678C20.0548 123.304 19.3423 122.065 18.7656 120.793C18.1889 119.52 17.714 118.112 18.0363 116.754C18.3416 115.397 19.6986 114.192 21.0555 114.514C22.0563 114.752 22.7348 115.685 23.0571 116.669C23.3793 117.637 23.4133 118.689 23.6338 119.69C23.7186 120.097 23.9221 120.555 24.3292 120.64C24.5667 120.674 24.8042 120.572 25.0077 120.47C27.0601 119.486 29.2822 118.841 31.5382 118.57C32.1827 118.485 32.8612 118.451 33.4549 118.723C33.9977 118.977 34.4048 119.452 34.7779 119.927C36.101 121.573 37.9499 124.322 39.2729 125.968C39.4765 124.848 39.0185 122.625 38.9846 121.505C38.3061 116.313 35.4904 106.556 23.8034 108.287C17.8497 109.169 12.4896 113.92 8.38477 120.419C9.11414 120.165 10.0471 120.199 10.522 120.793Z" fill="#176355"/>
<path d="M8.67512 140.205C6.60573 136.726 5.85939 132.62 5.41837 128.598C5.33356 127.801 5.26571 127.003 5.24875 126.223C0.736807 135.979 -1.24777 147.789 0.821618 156.562C0.787694 153.949 1.53403 151.336 2.6705 148.96C4.21406 145.77 6.45307 142.97 8.67512 140.205Z" fill="#176355"/>
<path d="M38.8164 120.453C38.8164 120.453 48.6714 111.698 58.9166 118.604C69.1618 125.527 81.9343 131.398 105.766 225.962C106.445 230.374 96.9459 229.797 96.454 225.962C95.9621 222.127 71.0615 93.7793 39.3253 126.053" fill="#1F8572"/>
<path d="M35.8811 121.421C30.0291 124.594 20.2249 153.033 27.9597 178.858C29.2488 179.113 21.8872 141.579 38.154 124.526" fill="#0E4239"/>
<path d="M159.145 115.819C155.159 116.43 151.241 117.533 147.526 119.094C145.27 120.045 140.928 119.162 139.367 121.046C132.362 113.359 122.626 112.629 112.872 116.21C112.465 121.147 116.027 123.981 116.027 123.981C116.027 123.981 129.173 120.961 128.528 122.047C127.884 123.133 117.757 125.712 118.181 127.867C118.605 130.022 123.355 133.466 123.355 133.466L128.104 131.413L124.865 135.503C124.865 135.503 127.663 138.285 132.616 140.508C137.569 142.731 150.511 141.017 151.359 149.417C152.649 153.506 152.869 148.331 154.803 145.972C156.736 143.597 168.373 134.756 168.593 131.413C168.661 130.344 168.05 129.428 167.185 128.681C165.184 128.41 162.351 126.221 162.351 126.221C162.351 126.221 165.336 127.086 167.185 128.681C167.881 128.766 168.474 128.63 168.814 128.071C169.526 126.883 170.798 121.86 170.442 117.092C169.95 116.804 169.441 116.549 168.915 116.345C165.828 115.175 162.402 115.327 159.128 115.836L159.145 115.819Z" fill="#0A3029"/>
<path d="M167.203 128.665C165.354 127.069 162.369 126.204 162.369 126.204C162.369 126.204 165.202 128.41 167.203 128.665Z" fill="#176355"/>
<path d="M164.948 108.099C156.552 105.215 149.648 101.991 141.456 113.41C141.456 113.41 123.561 101.346 113.01 115.141C112.942 115.514 112.891 115.871 112.857 116.21C122.594 112.63 132.33 113.359 139.352 121.046C140.913 119.163 145.255 120.045 147.511 119.095C151.226 117.534 155.144 116.431 159.13 115.82C162.404 115.328 165.83 115.158 168.917 116.329C169.443 116.532 169.952 116.787 170.444 117.075C170.139 113.139 168.731 109.389 164.931 108.082L164.948 108.099Z" fill="#176355"/>
<path d="M142.676 111.815C142.676 111.815 127.037 110.101 125.121 225.265C124.154 230.711 131.905 226.351 131.905 226.351C131.905 226.351 133.245 126.102 142.676 111.798V111.815Z" fill="#1F8572"/>
<path d="M145.747 119.502C147.596 122.319 148.733 125.611 149.479 128.92C150.429 133.06 150.853 137.302 151.837 141.442C151.939 141.883 152.108 142.393 152.532 142.545C154.347 137.268 152.956 131.499 151.565 126.086C150.904 123.507 150.192 120.86 148.953 118.535C148.461 118.722 147.986 118.891 147.495 119.095C147.003 119.299 146.375 119.418 145.73 119.502H145.747Z" fill="#0E4239"/>
<path d="M79.3553 23.8529C80.0507 22.8009 76.8109 20.2387 71.0268 23.8529C65.2427 27.4672 52.08 72.9591 52.2497 92.0653C54.1155 93.9997 58.6275 54.9557 79.3553 23.8529Z" fill="#1F8572"/>
<path d="M157.093 202.393C163.945 202.393 163.945 191.754 157.093 191.754C150.24 191.754 150.24 202.393 157.093 202.393Z" fill="#176355"/>
<path d="M155.432 200.509C151.684 207.042 148.122 213.693 144.729 220.43C144.356 221.193 143.966 221.991 143.983 222.839C144 223.942 144.729 224.926 145.628 225.554C146.527 226.182 147.596 226.504 148.648 226.827C148.97 226.928 149.309 227.013 149.614 226.928C150.089 226.793 150.327 226.284 150.53 225.842C153.685 218.495 156.823 211.148 159.978 203.818L155.449 200.509H155.432Z" fill="#1F8572"/>
<path d="M182.113 183.151C174.65 178.959 169.273 183.066 166.033 187.359C161.165 183.931 154.244 181.148 149.58 188.037C141.675 199.678 163.489 206.075 176.584 218.309C181.231 220.633 179.196 220.345 180.943 213.066C182.69 205.786 195.191 190.481 182.113 183.151Z" fill="#176355"/>
<path d="M164.609 186.426L166.051 187.376C172.853 190.295 175.16 211.658 175.804 210.775C176.466 209.893 174.329 183.762 164.609 186.426Z" fill="#1F8572"/>
<path d="M60.9022 209.468C58.6802 200.339 62.5136 190.023 70.1466 184.559C71.6902 183.456 73.4373 182.438 74.2345 180.724C74.455 180.232 74.5229 179.689 74.4889 179.129C72.0125 178.179 69.0441 178.264 66.6355 179.434C62.6663 181.369 60.1729 185.543 59.1382 189.836C58.6463 191.889 58.4427 193.976 58.3749 196.08C57.0179 200.713 57.3062 205.837 59.5283 210.113C59.7827 210.605 60.088 211.097 60.5969 211.318C60.7156 211.369 60.8174 211.386 60.9362 211.403C61.0718 210.809 61.004 210.062 60.8683 209.451L60.9022 209.468Z" fill="#1F8572"/>
<path d="M78.3728 182.268C77.4908 180.775 76.0999 179.74 74.5055 179.129C74.5394 179.672 74.4715 180.232 74.251 180.724C73.4538 182.438 71.7067 183.456 70.1631 184.559C62.5132 190.023 58.6967 200.339 60.9187 209.468C61.0714 210.062 61.1223 210.826 60.9866 211.42C62.0382 211.572 62.9881 210.367 63.5648 209.349C65.0236 206.753 66.8046 204.344 68.8401 202.189C71.588 199.287 74.8277 196.827 77.0668 193.535C79.3227 190.243 80.4083 185.713 78.3728 182.285V182.268Z" fill="#0A3029"/>
<path d="M72.4707 181.895C77.2201 183.099 80.3072 187.545 82.9703 191.668C87.3296 198.439 91.6719 205.209 96.0312 211.979C95.1831 207.924 97.3542 203.682 96.5231 199.61C96.0821 197.506 94.8778 195.639 93.5886 193.908C89.6025 188.563 76.5925 179.129 72.8608 179.129" fill="#1F8572"/>
<path d="M103.511 207.907C106.463 213.066 109.278 218.309 111.941 223.62C112.247 224.214 112.552 224.842 112.535 225.52C112.518 226.386 111.941 227.166 111.246 227.658C110.534 228.15 109.702 228.405 108.871 228.659C108.617 228.744 108.362 228.812 108.108 228.744C107.735 228.625 107.548 228.235 107.396 227.879C104.919 222.093 102.426 216.307 99.9492 210.52L103.528 207.924L103.511 207.907Z" fill="#1F8572"/>
<path d="M82.4758 194.231C88.3617 190.939 92.5853 194.163 95.1466 197.556C98.98 194.858 104.442 192.669 108.123 198.082C114.348 207.262 97.1481 212.302 86.8351 221.94C83.1713 223.772 84.7657 223.552 83.3918 217.816C82.0178 212.081 72.1628 200.017 82.4758 194.231Z" fill="#176355"/>
<path d="M96.2865 196.792L95.1501 197.539C89.79 199.847 87.9751 216.679 87.4492 215.983C86.9234 215.288 88.6196 194.688 96.2696 196.792H96.2865Z" fill="#1F8572"/>
</svg>
