<svg width="108" height="108" viewBox="0 0 108 108" fill="none" xmlns="http://www.w3.org/2000/svg">
<circle cx="54" cy="54" r="54" fill="white"/>
<g clip-path="url(#clip0_112_995)">
<path d="M55.9788 47.2632C56.8662 45.1222 57.8868 43.0991 59.3188 41.2965C61.9086 38.0374 65.2981 35.9459 69.2018 34.6719C73.7605 33.1888 78.4487 32.8732 83.2017 33.3257C83.7844 33.3827 84.2605 33.4664 84.3823 34.246C85.3535 40.4675 84.9688 46.5064 81.9449 52.1651C79.3323 57.0518 75.162 59.9686 69.9178 61.5392C66.0903 62.6876 62.179 62.8397 58.2372 62.7028C57.4527 62.6762 57.1366 62.8664 56.988 63.6802C56.5729 65.9619 56.3177 68.2512 56.3292 70.571C56.3444 74.5297 56.2682 78.4847 56.413 82.4435C56.4967 84.7176 56.352 86.9993 56.3177 89.2772C56.3025 90.4067 55.9102 90.9999 55.1447 91.0152C54.3107 91.0304 53.9413 90.4828 53.9413 89.2316C53.9413 86.4137 53.9413 83.592 53.9413 80.774C53.9413 79.1806 53.6175 77.6291 53.3319 76.0737C53.2138 75.4272 52.814 75.4614 52.3531 75.4957C48.9788 75.7314 45.6236 75.5223 42.3292 74.7921C36.4832 73.4954 31.6579 70.6546 28.6302 65.2926C26.0937 60.79 25.3549 55.8957 25.6291 50.7999C25.6977 49.5031 25.8195 48.2139 26.048 46.9323C26.1356 46.438 26.3603 46.244 26.8478 46.1908C33.6688 45.4302 40.2155 46.206 46.2139 49.7807C49.3635 51.6555 51.7362 54.2947 53.29 57.6374C53.4043 57.8808 53.4309 58.1964 53.7737 58.3257C53.827 58.2649 53.926 58.2002 53.926 58.1356C53.9565 54.3099 54.185 50.4766 53.389 46.6852C53.2138 45.8447 52.9396 45.5405 52.0408 45.5861C48.1905 45.7763 44.3592 45.5101 40.6421 44.4415C32.8119 42.1826 27.998 37.0525 26.1966 29.1045C25.294 25.1229 25.3359 21.1261 25.9376 17.1179C26.0176 16.5969 26.208 16.2699 26.8212 16.2128C31.8636 15.7298 36.826 15.9998 41.6513 17.6997C48.6589 20.164 53.0653 24.9784 54.821 32.2001C55.7274 35.9421 55.7198 39.7297 55.3732 43.5326C55.2552 44.8332 55.7312 46.0083 55.9788 47.2632ZM52.9815 38.1705C53.0767 38.1515 53.1681 38.1287 53.2634 38.1097C53.1415 36.9042 53.0729 35.6873 52.8825 34.4894C52.0713 29.3137 49.8015 24.9784 45.3037 22.0692C40.2193 18.7835 34.5257 18.0534 28.6149 18.4071C28.0894 18.4375 28.0208 18.795 27.9827 19.1866C27.7314 21.8106 27.7352 24.427 28.1617 27.0434C29.4109 34.6833 33.5241 39.878 41.0763 42.1293C44.3896 43.1181 47.7944 43.3805 51.2334 43.3044C52.4826 43.274 52.4979 43.1865 52.0903 42.0495C51.6295 40.7641 51.0468 39.5396 50.426 38.3265C48.3542 34.2916 45.5245 30.8767 41.9636 28.0777C39.1225 25.8455 35.992 24.1456 32.5567 23.0009C31.8331 22.7613 31.2999 22.3354 31.5513 21.457C31.7646 20.7268 32.4158 20.4834 33.3603 20.8143C39.6214 23.0047 44.8543 26.6365 48.9864 31.8464C50.5479 33.8163 51.8542 35.9345 52.9853 38.1705H52.9815ZM53.1643 68.1295C53.3433 66.7567 53.1262 65.4257 52.8977 64.1023C51.7095 57.1392 47.8401 52.3628 41.1791 49.9138C37.4049 48.5257 33.4784 48.1569 29.4833 48.29C28.097 48.3356 28.0741 48.3204 27.9942 49.7427C27.8114 52.9789 27.8723 56.2037 28.733 59.3601C30.2259 64.8362 33.3755 68.9091 38.6998 71.187C42.9119 72.9896 47.3374 73.3242 51.839 73.2368C52.5664 73.2215 52.494 72.9021 52.315 72.4039C50.8564 68.2892 48.6703 64.6043 45.7035 61.4061C42.0588 57.4739 37.6601 54.6674 32.591 52.9181C31.8103 52.6481 31.357 52.1613 31.6427 51.3513C31.9359 50.5261 32.6138 50.4956 33.3755 50.7542C39.1873 52.7203 44.0888 56.0288 48.1181 60.6417C50.1061 62.9196 51.7323 65.4409 53.1643 68.1295ZM57.0832 55.5268C57.4298 55.4318 57.4489 55.1808 57.5441 54.9982C60.8041 48.5219 65.6142 43.5554 72.0239 40.1404C73.6767 39.2582 75.3829 38.4976 77.1691 37.9424C78.186 37.6267 78.9096 38.1782 78.8029 39.1099C78.7306 39.7525 78.2698 39.9883 77.7366 40.1747C74.6669 41.2509 71.7954 42.7074 69.1789 44.6506C63.9651 48.5219 60.2976 53.5227 58.0887 59.6149C57.8449 60.2918 57.9897 60.4744 58.7057 60.4858C61.76 60.5352 64.7916 60.3793 67.7774 59.6948C71.902 58.7517 75.5657 56.9529 78.2317 53.5683C82.2572 48.4497 82.8894 42.502 82.2953 36.2767C82.2306 35.6036 81.8649 35.5618 81.3394 35.5428C77.5119 35.4021 73.7453 35.6759 70.0701 36.87C64.9592 38.528 61.0593 41.5551 58.9037 46.5825C57.6812 49.427 57.1556 52.4161 57.0871 55.5344L57.0832 55.5268Z" fill="#9AC35B"/>
<path d="M52.9826 38.1707C51.8515 35.9308 50.5452 33.8126 48.9837 31.8465C44.8515 26.6366 39.6187 23.0011 33.3576 20.8144C32.4131 20.4836 31.7618 20.7269 31.5486 21.4571C31.2934 22.3356 31.8304 22.7615 32.554 23.0011C35.9892 24.1419 39.1236 25.8456 41.9609 28.0779C45.5218 30.8768 48.3515 34.288 50.4233 38.3266C51.0479 39.5397 51.6268 40.768 52.0876 42.0496C52.4989 43.1867 52.4799 43.2779 51.2307 43.3046C47.7955 43.3844 44.3907 43.1182 41.0735 42.1295C33.5252 39.8744 29.4158 34.6835 28.1628 27.0435C27.7363 24.4309 27.7325 21.8146 27.9838 19.1868C28.0219 18.7951 28.0905 18.4376 28.616 18.4072C34.5268 18.0535 40.2205 18.7837 45.3048 22.0732C49.8026 24.9785 52.0724 29.3176 52.8836 34.4933C53.0702 35.6912 53.1388 36.9043 53.2645 38.1136C53.1692 38.1327 53.0778 38.1555 52.9826 38.1745V38.1707Z" fill="#FCFDFA"/>
<path d="M53.1646 68.1296C51.7289 65.4371 50.1064 62.9158 48.1184 60.6417C44.0891 56.0288 39.1838 52.7204 33.3758 50.7543C32.6142 50.4957 31.9324 50.5261 31.643 51.3513C31.3574 52.1575 31.8106 52.6481 32.5913 52.9181C37.6604 54.6674 42.0592 57.4701 45.7039 61.4061C48.6668 64.6081 50.8567 68.2931 52.3154 72.404C52.4906 72.9022 52.5667 73.2216 51.8393 73.2368C47.3377 73.3205 42.9123 72.9896 38.7001 71.1871C33.3797 68.9091 30.2262 64.8363 28.7333 59.3602C27.8726 56.2038 27.8155 52.979 27.9945 49.7427C28.0745 48.3204 28.0973 48.3395 29.4836 48.29C33.4787 48.1569 37.4052 48.5258 41.1794 49.9138C47.8404 52.3629 51.7136 57.1393 52.8981 64.1023C53.1228 65.4257 53.3436 66.7567 53.1646 68.1296Z" fill="#FCFDFA"/>
<path d="M57.0839 55.5266C57.1524 52.4082 57.6818 49.4192 58.9005 46.5747C61.0561 41.5473 64.956 38.524 70.067 36.8621C73.7421 35.668 77.5087 35.3904 81.3362 35.5349C81.8618 35.554 82.2274 35.5958 82.2921 36.2689C82.8863 42.4942 82.2541 48.4457 78.2285 53.5605C75.5664 56.9451 71.8988 58.7438 67.7743 59.6869C64.7922 60.3714 61.7569 60.5274 58.7025 60.4779C57.9865 60.4665 57.838 60.284 58.0855 59.6071C60.2944 53.5149 63.9658 48.5141 69.1758 44.6428C71.7922 42.6995 74.6638 41.2468 77.7334 40.1668C78.2666 39.9805 78.7274 39.7447 78.7998 39.102C78.9064 38.1703 78.1828 37.6189 77.1659 37.9345C75.376 38.4898 73.6736 39.2541 72.0207 40.1326C65.611 43.5476 60.7971 48.5141 57.5409 54.9904C57.4495 55.1729 57.4305 55.4277 57.0801 55.519L57.0839 55.5266Z" fill="#FCFDFA"/>
</g>
<defs>
<clipPath id="clip0_112_995">
<rect width="59.3588" height="75.0229" fill="white" transform="translate(25.5 16)"/>
</clipPath>
</defs>
</svg>
