<svg width="258" height="258" viewBox="0 0 258 258" fill="none" xmlns="http://www.w3.org/2000/svg">
<g filter="url(#filter0_d_301_8135)">
<circle opacity="0.5" cx="128.715" cy="124.715" r="120.715" fill="white"/>
</g>
<g filter="url(#filter1_d_301_8135)">
<circle opacity="0.5" cx="129.5" cy="124.5" r="91.5" fill="white"/>
</g>
<g opacity="0.5" filter="url(#filter2_d_301_8135)">
<circle cx="129" cy="125" r="59" fill="white"/>
</g>
<path d="M156.735 133.566C157.474 133.483 157.897 134.395 157.888 135.076C157.855 138.22 157.017 141.43 155.4 144.616C153.865 147.544 151.667 150.265 149.037 152.488C143.819 156.851 136.884 159.365 130.007 159.39C123.006 159.522 116.013 157.001 110.845 152.529C105.477 147.942 102.209 141.422 102.109 135.092C102.101 134.371 102.582 133.433 103.387 133.583C104.051 133.699 104.59 134.603 105.079 135.009C105.834 135.64 106.614 136.229 107.419 136.793C109.02 137.921 110.695 138.933 112.429 139.854C118.8 143.255 126.017 145.088 133.251 144.458C137.855 144.06 142.326 142.674 146.432 140.567C148.896 139.306 151.235 137.797 153.434 136.113C154.271 135.474 155.64 133.765 156.669 133.566C156.694 133.566 156.71 133.566 156.735 133.558V133.566Z" fill="#5E4939"/>
<path d="M180 174.568C207.614 146.954 207.614 102.183 180 74.5684C152.386 46.9541 107.614 46.9541 80 74.5684C52.3858 102.183 52.3858 146.954 80 174.568C107.614 202.183 152.386 202.183 180 174.568Z" fill="#97BAFF"/>
<path opacity="0.1" d="M166.994 64.2211C174.037 75.2127 178.118 88.2864 178.118 102.306C178.118 141.353 146.463 173.016 107.408 173.016C93.8444 173.016 81.1772 169.192 70.418 162.572C82.9856 182.191 104.977 195.19 130.004 195.19C169.051 195.19 200.715 163.535 200.715 124.48C200.715 98.9875 187.227 76.6561 167.002 64.2129L166.994 64.2211Z" fill="#1A191D"/>
<path opacity="0.5" d="M68.9017 132.036C68.9017 95.7764 98.2925 66.3855 134.552 66.3855C155.747 66.3855 174.586 76.4313 186.59 92.0185C175.25 72.3416 154.005 59.0938 129.666 59.0938C93.4065 59.0938 64.0156 88.4846 64.0156 124.744C64.0156 139.809 69.0925 153.687 77.6285 164.762C72.0788 155.131 68.9017 143.957 68.9017 132.044V132.036Z" fill="white"/>
<path d="M144.928 153C140.904 149.516 135.454 147.55 129.996 147.649C124.629 147.666 119.228 149.632 115.164 153.025C113.115 154.758 111.397 156.874 110.203 159.163C108.942 161.644 108.287 164.149 108.262 166.596C108.262 167.185 108.627 167.708 109.174 167.898C109.73 168.089 110.344 167.907 110.701 167.442C112.169 165.551 113.554 164.041 114.94 162.846C116.433 161.577 118.017 160.524 119.651 159.702C122.912 158.077 126.503 157.206 130.054 157.189C133.696 157.164 137.147 157.977 140.332 159.636C143.609 161.312 146.62 163.941 149.275 167.434C149.54 167.782 149.947 167.973 150.361 167.973C150.511 167.973 150.66 167.948 150.809 167.898C151.365 167.708 151.738 167.177 151.73 166.588C151.655 161.66 149.109 156.575 144.919 152.991L144.928 153Z" fill="#5E4939"/>
<path d="M180.89 136.026C179.961 135.753 179.065 135.504 178.144 135.247C176.228 134.708 174.42 134.201 172.678 133.596C170.056 132.708 167.7 131.705 165.477 130.535C163.138 129.299 161.014 127.914 158.973 126.312C156.742 124.579 154.676 122.555 152.768 120.63C152.569 120.431 152.262 120.373 152.005 120.489C151.748 120.605 151.582 120.871 151.599 121.153C151.748 124.147 152.926 127.242 155.017 130.104C156.924 132.683 159.471 134.849 162.4 136.383C165.145 137.827 168.223 138.714 171.309 138.946L171.666 138.971C172.097 138.996 172.52 139.005 172.935 139.005C175.905 139.005 178.601 138.44 180.981 137.312C181.239 137.188 181.396 136.922 181.371 136.64C181.346 136.358 181.156 136.118 180.882 136.035L180.89 136.026Z" fill="#303030"/>
<path d="M107.997 120.49C107.74 120.374 107.433 120.432 107.234 120.631C105.326 122.564 103.261 124.588 101.029 126.322C98.9969 127.923 96.8649 129.3 94.5256 130.544C92.3024 131.714 89.9465 132.718 87.3251 133.605C85.5831 134.211 83.7747 134.717 81.8252 135.264C80.9459 135.513 80.0417 135.762 79.1209 136.036C78.8472 136.119 78.6564 136.359 78.6315 136.641C78.6066 136.923 78.7642 137.197 79.0214 137.313C81.4022 138.433 84.1065 139.006 87.068 139.006C87.4828 139.006 87.9058 138.997 88.3372 138.972L88.6939 138.947C91.7798 138.715 94.8657 137.828 97.6032 136.384C100.523 134.858 103.078 132.684 104.986 130.105C107.077 127.251 108.263 124.157 108.404 121.154C108.421 120.872 108.255 120.606 107.997 120.49Z" fill="#303030"/>
<defs>
<filter id="filter0_d_301_8135" x="0" y="0" width="257.43" height="257.431" filterUnits="userSpaceOnUse" color-interpolation-filters="sRGB">
<feFlood flood-opacity="0" result="BackgroundImageFix"/>
<feColorMatrix in="SourceAlpha" type="matrix" values="0 0 0 0 0 0 0 0 0 0 0 0 0 0 0 0 0 0 127 0" result="hardAlpha"/>
<feOffset dy="4"/>
<feGaussianBlur stdDeviation="4"/>
<feComposite in2="hardAlpha" operator="out"/>
<feColorMatrix type="matrix" values="0 0 0 0 0 0 0 0 0 0 0 0 0 0 0 0 0 0 0.1 0"/>
<feBlend mode="normal" in2="BackgroundImageFix" result="effect1_dropShadow_301_8135"/>
<feBlend mode="normal" in="SourceGraphic" in2="effect1_dropShadow_301_8135" result="shape"/>
</filter>
<filter id="filter1_d_301_8135" x="30" y="29" width="199" height="199" filterUnits="userSpaceOnUse" color-interpolation-filters="sRGB">
<feFlood flood-opacity="0" result="BackgroundImageFix"/>
<feColorMatrix in="SourceAlpha" type="matrix" values="0 0 0 0 0 0 0 0 0 0 0 0 0 0 0 0 0 0 127 0" result="hardAlpha"/>
<feOffset dy="4"/>
<feGaussianBlur stdDeviation="4"/>
<feComposite in2="hardAlpha" operator="out"/>
<feColorMatrix type="matrix" values="0 0 0 0 0 0 0 0 0 0 0 0 0 0 0 0 0 0 0.1 0"/>
<feBlend mode="normal" in2="BackgroundImageFix" result="effect1_dropShadow_301_8135"/>
<feBlend mode="normal" in="SourceGraphic" in2="effect1_dropShadow_301_8135" result="shape"/>
</filter>
<filter id="filter2_d_301_8135" x="62" y="62" width="134" height="134" filterUnits="userSpaceOnUse" color-interpolation-filters="sRGB">
<feFlood flood-opacity="0" result="BackgroundImageFix"/>
<feColorMatrix in="SourceAlpha" type="matrix" values="0 0 0 0 0 0 0 0 0 0 0 0 0 0 0 0 0 0 127 0" result="hardAlpha"/>
<feOffset dy="4"/>
<feGaussianBlur stdDeviation="4"/>
<feComposite in2="hardAlpha" operator="out"/>
<feColorMatrix type="matrix" values="0 0 0 0 0 0 0 0 0 0 0 0 0 0 0 0 0 0 0.1 0"/>
<feBlend mode="normal" in2="BackgroundImageFix" result="effect1_dropShadow_301_8135"/>
<feBlend mode="normal" in="SourceGraphic" in2="effect1_dropShadow_301_8135" result="shape"/>
</filter>
</defs>
</svg>
