<svg width="60" height="60" viewBox="0 0 60 60" fill="none" xmlns="http://www.w3.org/2000/svg">
<circle cx="30" cy="30" r="25" fill="white"/>
<path d="M45 45C53.2843 36.7157 53.2843 23.2843 45 15C36.7157 6.71573 23.2843 6.71573 15 15C6.71573 23.2843 6.71573 36.7157 15 45C23.2843 53.2843 36.7157 53.2843 45 45Z" fill="#F3764D"/>
<path opacity="0.1" d="M41.0978 11.8941C43.2107 15.1915 44.4351 19.1136 44.4351 23.3195C44.4351 35.0335 34.9384 44.5326 23.2219 44.5326C19.1529 44.5326 15.3528 43.3854 12.125 41.3995C15.8953 47.2851 22.4927 51.1848 30.0009 51.1848C41.715 51.1848 51.2141 41.6881 51.2141 29.9716C51.2141 22.324 47.1676 15.6246 41.1003 11.8916L41.0978 11.8941Z" fill="#1A191D"/>
<path opacity="0.25" d="M11.6689 32.2362C11.6689 21.3583 20.4862 12.541 31.3641 12.541C37.7225 12.541 43.3743 15.5548 46.9753 20.2309C43.5734 14.3279 37.1999 10.3535 29.8983 10.3535C19.0204 10.3535 10.2031 19.1708 10.2031 30.0486C10.2031 34.568 11.7262 38.7315 14.287 42.0539C12.6221 39.1645 11.6689 35.8123 11.6689 32.2387V32.2362Z" fill="white"/>
<path d="M22.184 28.687C23.0471 28.687 23.7468 27.507 23.7468 26.0515C23.7468 24.596 23.0471 23.416 22.184 23.416C21.3208 23.416 20.6211 24.596 20.6211 26.0515C20.6211 27.507 21.3208 28.687 22.184 28.687Z" fill="#303030"/>
<path d="M39.3757 26.0515C39.3757 27.5073 38.6764 28.687 37.8128 28.687C36.9493 28.687 36.25 27.5073 36.25 26.0515C36.25 24.5956 36.9493 23.416 37.8128 23.416C38.6764 23.416 39.3757 24.5956 39.3757 26.0515Z" fill="#303030"/>
<path d="M38.6947 39.4255C39.2422 39.9556 40.1157 39.3683 39.8345 38.6615C38.2666 34.7444 34.4391 31.9795 29.9621 31.9795C25.485 31.9795 21.7844 34.6548 20.1717 38.4674C19.8781 39.1617 20.759 39.764 21.3016 39.2389C24.4049 36.2301 30.9973 31.9472 38.6947 39.4255Z" fill="#5E4939"/>
<path d="M21.8437 17.6416L20.4219 19.0635L25.1679 23.8095L26.5898 22.3876L21.8437 17.6416Z" fill="#303030"/>
<path d="M39.5781 19.0625L38.1562 17.6406L33.4102 22.3866L34.8321 23.8085L39.5781 19.0625Z" fill="#303030"/>
</svg>
