<svg width="60" height="60" viewBox="0 0 60 60" fill="none" xmlns="http://www.w3.org/2000/svg">
<circle cx="30" cy="30" r="25" fill="white"/>
<path d="M45 45C53.2843 36.7157 53.2843 23.2843 45 15C36.7157 6.71573 23.2843 6.71573 15 15C6.71573 23.2843 6.71573 36.7157 15 45C23.2843 53.2843 36.7157 53.2843 45 45Z" fill="#FFBCC1"/>
<path opacity="0.1" d="M41.0978 11.8951C43.2106 15.1925 44.4351 19.1146 44.4351 23.3204C44.4351 35.0345 34.9384 44.5336 23.2219 44.5336C19.1529 44.5336 15.3528 43.3864 12.125 41.4004C15.8953 47.2861 22.4927 51.1858 30.0009 51.1858C41.715 51.1858 51.2141 41.6891 51.2141 29.9726C51.2141 22.325 47.1676 15.6255 41.1003 11.8926L41.0978 11.8951Z" fill="#1A191D"/>
<path opacity="0.25" d="M11.6728 32.2371C11.6728 21.3593 20.4901 12.542 31.368 12.542C37.7265 12.542 43.3782 15.5558 46.9792 20.2319C43.5773 14.3289 37.2039 10.3545 29.9022 10.3545C19.0243 10.3545 10.207 19.1718 10.207 30.0496C10.207 34.569 11.7301 38.7325 14.2909 42.0548C12.626 39.1655 11.6728 35.8133 11.6728 32.2396V32.2371Z" fill="white"/>
<path d="M21.3036 32.1851C20.7561 31.655 19.8826 32.2423 20.1638 32.9491C21.7316 36.8662 25.5592 39.6311 30.0362 39.6311C34.5133 39.6311 38.2139 36.9558 39.8266 33.1432C40.1202 32.4489 39.2393 31.8466 38.6967 32.3718C35.5934 35.3805 29.001 39.6635 21.3036 32.1851Z" fill="#5E4939"/>
<path d="M35.4749 25.3583C36.0746 26.859 37.5081 27.8296 39.1232 27.8296C40.7383 27.8296 42.1245 26.8888 42.7417 25.4305C42.8587 25.1518 42.7666 24.8357 42.5152 24.664C42.2639 24.4923 41.9378 24.5197 41.7188 24.7312C40.5417 25.8735 38.6802 26.7893 36.5002 24.669C36.3782 24.5495 36.2189 24.4873 36.0597 24.4873C35.9377 24.4873 35.8158 24.5221 35.7063 24.5968C35.455 24.7635 35.3604 25.0771 35.4724 25.3583H35.4749Z" fill="#303030"/>
<path d="M17.2497 25.3578C17.8495 26.8584 19.2829 27.829 20.8981 27.829C22.5132 27.829 23.8994 26.8883 24.5165 25.4325C24.636 25.1537 24.5415 24.8377 24.2926 24.666C24.0412 24.4942 23.7152 24.5216 23.4962 24.7331C22.3191 25.8754 20.4601 26.7913 18.2775 24.6709C18.1556 24.5515 17.9963 24.4893 17.837 24.4893C17.7151 24.4893 17.5931 24.5241 17.4836 24.5988C17.2323 24.7655 17.1377 25.0791 17.2497 25.3603V25.3578Z" fill="#303030"/>
<path d="M14.4023 36.6543C16.4475 36.6543 18.1054 34.9963 18.1054 32.9511C18.1054 30.906 16.4475 29.248 14.4023 29.248C12.3571 29.248 10.6992 30.906 10.6992 32.9511C10.6992 34.9963 12.3571 36.6543 14.4023 36.6543Z" fill="#F26E78"/>
<path d="M45.5937 36.6543C47.6389 36.6543 49.2968 34.9963 49.2968 32.9511C49.2968 30.906 47.6389 29.248 45.5937 29.248C43.5486 29.248 41.8906 30.906 41.8906 32.9511C41.8906 34.9963 43.5486 36.6543 45.5937 36.6543Z" fill="#F26E78"/>
</svg>
