<svg width="60" height="60" viewBox="0 0 60 60" fill="none" xmlns="http://www.w3.org/2000/svg">
<circle cx="30" cy="30" r="25" fill="white"/>
<path d="M45 45C53.2843 36.7157 53.2843 23.2843 45 15C36.7157 6.71573 23.2843 6.71573 15 15C6.71573 23.2843 6.71573 36.7157 15 45C23.2843 53.2843 36.7157 53.2843 45 45Z" fill="#FFDB6C"/>
<path opacity="0.05" d="M41.0978 11.8941C43.2107 15.1915 44.4351 19.1136 44.4351 23.3195C44.4351 35.0335 34.9384 44.5326 23.2219 44.5326C19.1529 44.5326 15.3528 43.3854 12.125 41.3995C15.8953 47.2851 22.4927 51.1848 30.0009 51.1848C41.715 51.1848 51.2141 41.6881 51.2141 29.9716C51.2141 22.324 47.1676 15.6246 41.1003 11.8916L41.0978 11.8941Z" fill="#1A191D"/>
<path opacity="0.25" d="M11.6689 32.2362C11.6689 21.3583 20.4862 12.541 31.3641 12.541C37.7226 12.541 43.3743 15.5548 46.9753 20.2309C43.5733 14.3279 37.1999 10.3535 29.8983 10.3535C19.0204 10.3535 10.2031 19.1708 10.2031 30.0486C10.2031 34.568 11.7262 38.7315 14.287 42.0539C12.6221 39.1645 11.6689 35.8123 11.6689 32.2387V32.2362Z" fill="white"/>
<path d="M38.0206 32.6988C38.2421 32.6739 38.369 32.9476 38.3665 33.1517C38.3565 34.0949 38.1052 35.058 37.6199 36.0137C37.1595 36.8922 36.5 37.7084 35.7111 38.3754C34.1458 39.6844 32.0652 40.4385 30.0022 40.4459C27.9017 40.4858 25.8038 39.7292 24.2534 38.3878C22.6432 37.0116 21.6627 35.0555 21.6328 33.1567C21.6304 32.9402 21.7747 32.659 22.0161 32.7038C22.2152 32.7386 22.377 33.0099 22.5238 33.1318C22.7502 33.3209 22.9842 33.4976 23.2256 33.6669C23.7059 34.0053 24.2086 34.3089 24.7287 34.5852C26.64 35.6055 28.8051 36.1555 30.9752 35.9664C32.3564 35.8469 33.6978 35.4313 34.9297 34.7992C35.6688 34.4209 36.3706 33.968 37.0301 33.4628C37.2814 33.2712 37.6921 32.7585 38.0007 32.6988C38.0081 32.6988 38.0131 32.6988 38.0206 32.6963V32.6988Z" fill="#5E4939"/>
<path d="M23.5007 26.2038C23.5007 27.6597 22.8014 28.8393 21.9379 28.8393C21.0743 28.8393 20.375 27.6597 20.375 26.2038C20.375 24.748 21.0743 23.5684 21.9379 23.5684C22.8014 23.5684 23.5007 24.748 23.5007 26.2038Z" fill="#303030"/>
<path d="M40.9198 27.0777C40.32 25.577 38.8866 24.6064 37.2714 24.6064C35.6563 24.6064 34.2701 25.5472 33.6529 27.003C33.5335 27.2817 33.6281 27.5978 33.8769 27.7695C34.1283 27.9412 34.4543 27.9139 34.6733 27.7023C35.8504 26.56 37.7094 25.6442 39.892 27.7645C40.0139 27.884 40.1732 27.9462 40.3325 27.9462C40.4544 27.9462 40.5764 27.9114 40.6859 27.8367C40.9372 27.67 41.0318 27.3564 40.9198 27.0752V27.0777Z" fill="#303030"/>
<path d="M46.9763 10.5205C45.4159 18.0959 39.4805 19.8778 39.4805 19.8778C39.4805 19.8778 45.4159 21.6597 46.9763 29.2351C48.5366 21.6597 54.4721 19.8778 54.4721 19.8778C54.4721 19.8778 48.5366 18.0959 46.9763 10.5205Z" fill="#F0E1D5"/>
<path d="M46.9763 10.5205C45.4159 18.0959 39.4805 19.8778 39.4805 19.8778C39.4805 19.8778 47.4466 21.045 46.9763 10.5205Z" fill="#F1F2F2"/>
</svg>
