<svg width="60" height="60" viewBox="0 0 60 60" fill="none" xmlns="http://www.w3.org/2000/svg">
<circle cx="30" cy="30" r="25" fill="white"/>
<path d="M45 45C53.2843 36.7157 53.2843 23.2843 45 15C36.7157 6.71572 23.2843 6.71573 15 15C6.71573 23.2843 6.71573 36.7157 15 45C23.2843 53.2843 36.7157 53.2843 45 45Z" fill="#FFA755"/>
<path opacity="0.1" d="M41.0978 11.8951C43.2107 15.1925 44.4351 19.1146 44.4351 23.3204C44.4351 35.0345 34.9384 44.5336 23.2219 44.5336C19.1529 44.5336 15.3528 43.3864 12.125 41.4004C15.8953 47.2861 22.4927 51.1858 30.0009 51.1858C41.715 51.1858 51.2141 41.6891 51.2141 29.9726C51.2141 22.325 47.1676 15.6255 41.1003 11.8926L41.0978 11.8951Z" fill="#1A191D"/>
<path opacity="0.25" d="M11.6728 32.2371C11.6728 21.3593 20.4901 12.542 31.368 12.542C37.7265 12.542 43.3782 15.5558 46.9792 20.2319C43.5773 14.3289 37.2038 10.3545 29.9022 10.3545C19.0243 10.3545 10.207 19.1718 10.207 30.0496C10.207 34.569 11.7301 38.7325 14.2909 42.0548C12.626 39.1655 11.6728 35.8133 11.6728 32.2396V32.2371Z" fill="white"/>
<path d="M18.5607 31.9932C18.292 31.9932 18.0282 31.8738 17.8515 31.6473C17.5454 31.2566 17.6175 30.6917 18.0083 30.3856L21.0668 28.0015L17.9037 26.1424C17.4757 25.8911 17.3338 25.3386 17.5852 24.9106C17.8365 24.4825 18.389 24.3407 18.8171 24.592L23.1199 27.123C23.3763 27.2748 23.543 27.5411 23.5604 27.8397C23.5803 28.1359 23.4509 28.4245 23.217 28.6087L19.1132 31.8066C18.949 31.9335 18.7549 31.9957 18.5607 31.9957V31.9932Z" fill="#303030"/>
<path d="M41.4431 31.9938C41.249 31.9938 41.0549 31.9316 40.8906 31.8046L36.7868 28.6067C36.5529 28.4226 36.4235 28.1364 36.4434 27.8377C36.4633 27.5416 36.6276 27.2728 36.8839 27.121L41.1868 24.5901C41.6148 24.3387 42.1648 24.4806 42.4186 24.9086C42.67 25.3367 42.5282 25.8867 42.1001 26.1405L38.937 27.9995L41.9956 30.3836C42.3863 30.6897 42.4585 31.2547 42.1524 31.6454C41.9757 31.8718 41.7094 31.9913 41.4431 31.9913V31.9938Z" fill="#303030"/>
<path d="M14.12 22.1604C14.3838 22.1132 14.6377 22.0708 14.8866 22.031C15.4341 21.9414 15.9517 21.8543 16.4544 21.7399C17.206 21.5731 17.8879 21.3691 18.5399 21.1102C19.2267 20.839 19.8564 20.5204 20.4686 20.1372C21.138 19.7265 21.7701 19.2288 22.355 18.7535C22.3873 18.7261 22.4346 18.7236 22.4719 18.7435C22.5093 18.7659 22.5292 18.8057 22.5217 18.8481C22.3948 19.6519 21.9842 20.4507 21.3321 21.1625C20.7398 21.8046 19.9833 22.3172 19.1446 22.6457C18.3557 22.9568 17.4971 23.1036 16.651 23.0763C16.6186 23.0763 16.5863 23.0738 16.5539 23.0713C15.6083 23.0165 14.7771 22.7751 14.0802 22.3471C14.0429 22.3247 14.0255 22.2824 14.0329 22.2401C14.0404 22.1978 14.0752 22.1654 14.1176 22.1579L14.12 22.1604Z" fill="#414042"/>
<path d="M45.8837 22.1604C45.6199 22.1132 45.3661 22.0708 45.1172 22.031C44.5697 21.9414 44.052 21.8543 43.5493 21.7399C42.7978 21.5731 42.1159 21.3691 41.4639 21.1102C40.777 20.839 40.1474 20.5204 39.5352 20.1372C38.8657 19.7265 38.2336 19.2288 37.6488 18.7535C37.6164 18.7261 37.5691 18.7236 37.5318 18.7435C37.4945 18.7659 37.4746 18.8057 37.482 18.8481C37.6089 19.6519 38.0196 20.4507 38.6716 21.1625C39.2639 21.8046 40.0205 22.3172 40.8591 22.6457C41.648 22.9568 42.5066 23.1036 43.3527 23.0763C43.3851 23.0763 43.4174 23.0738 43.4498 23.0713C44.3955 23.0165 45.2267 22.7751 45.9235 22.3471C45.9608 22.3247 45.9782 22.2824 45.9708 22.2401C45.9633 22.1978 45.9285 22.1654 45.8862 22.1579L45.8837 22.1604Z" fill="#414042"/>
<path d="M37.312 33.4648C37.5758 33.4648 37.8247 33.5843 37.9914 33.7909L40.8608 37.3571C41.1619 37.7329 41.1022 38.2804 40.7289 38.5815C40.3531 38.8826 39.8056 38.8229 39.5045 38.4496L37.3792 35.8092L34.3853 40.2962C34.2236 40.5376 33.9523 40.6844 33.6612 40.6844C33.37 40.6844 33.0987 40.5401 32.9369 40.2962L30.0053 35.9062L27.0737 40.2962C26.9119 40.5376 26.6407 40.6844 26.3495 40.6844C26.0583 40.6844 25.7871 40.5376 25.6253 40.2962L22.6315 35.8092L20.5062 38.4496C20.2051 38.8254 19.6551 38.8826 19.2818 38.5815C18.906 38.2804 18.8487 37.7304 19.1499 37.3571L22.0193 33.7909C22.1935 33.5743 22.4622 33.4524 22.736 33.4673C23.0122 33.4798 23.2686 33.6241 23.4229 33.8531L26.352 38.243L29.2836 33.8531C29.4454 33.6117 29.7167 33.4648 30.0078 33.4648C30.299 33.4648 30.5703 33.6092 30.732 33.8531L33.6636 38.243L36.5928 33.8531C36.7471 33.6216 37.0009 33.4798 37.2796 33.4673C37.2921 33.4673 37.3045 33.4673 37.3194 33.4673L37.312 33.4648Z" fill="#5E4939"/>
</svg>
