<svg width="60" height="60" viewBox="0 0 60 60" fill="none" xmlns="http://www.w3.org/2000/svg">
<circle cx="30" cy="30" r="25" fill="white"/>
<path d="M45 45C53.2843 36.7157 53.2843 23.2843 45 15C36.7157 6.71573 23.2843 6.71573 15 15C6.71573 23.2843 6.71573 36.7157 15 45C23.2843 53.2843 36.7157 53.2843 45 45Z" fill="#C4C058"/>
<path opacity="0.1" d="M41.0978 11.896C43.2107 15.1935 44.4351 19.1156 44.4351 23.3214C44.4351 35.0355 34.9384 44.5346 23.2219 44.5346C19.1529 44.5346 15.3528 43.3874 12.125 41.4014C15.8953 47.2871 22.4927 51.1868 30.0009 51.1868C41.715 51.1868 51.2141 41.6901 51.2141 29.9736C51.2141 22.326 47.1676 15.6265 41.1003 11.8936L41.0978 11.896Z" fill="#1A191D"/>
<path opacity="0.5" d="M11.6689 32.2381C11.6689 21.3603 20.4862 12.543 31.3641 12.543C37.7226 12.543 43.3743 15.5567 46.9753 20.2329C43.5734 14.3298 37.1999 10.3555 29.8983 10.3555C19.0204 10.3555 10.2031 19.1727 10.2031 30.0506C10.2031 34.57 11.7262 38.7335 14.287 42.0558C12.6221 39.1665 11.6689 35.8143 11.6689 32.2406V32.2381Z" fill="white"/>
<path d="M45 45C53.2843 36.7157 53.2843 23.2843 45 15C36.7157 6.71573 23.2843 6.71573 15 15C6.71573 23.2843 6.71573 36.7157 15 45C23.2843 53.2843 36.7157 53.2843 45 45Z" fill="#A5E9F2"/>
<path opacity="0.1" d="M41.0978 11.896C43.2107 15.1935 44.4351 19.1156 44.4351 23.3214C44.4351 35.0355 34.9384 44.5346 23.2219 44.5346C19.1529 44.5346 15.3528 43.3874 12.125 41.4014C15.8953 47.2871 22.4927 51.1868 30.0009 51.1868C41.715 51.1868 51.2141 41.6901 51.2141 29.9736C51.2141 22.326 47.1676 15.6265 41.1003 11.8936L41.0978 11.896Z" fill="#1A191D"/>
<path opacity="0.5" d="M11.6689 32.2381C11.6689 21.3603 20.4862 12.543 31.3641 12.543C37.7226 12.543 43.3743 15.5567 46.9753 20.2329C43.5734 14.3298 37.1999 10.3555 29.8983 10.3555C19.0204 10.3555 10.2031 19.1727 10.2031 30.0506C10.2031 34.57 11.7262 38.7335 14.287 42.0558C12.6221 39.1665 11.6689 35.8143 11.6689 32.2406V32.2381Z" fill="white"/>
<path d="M26.0435 34.5802C25.7943 34.3724 25.3968 34.6027 25.5248 34.8798C26.2383 36.4158 27.9802 37.5 30.0178 37.5C32.0553 37.5 33.7383 36.451 34.4734 34.9559C34.607 34.6837 34.2061 34.4475 33.9592 34.6534C32.5469 35.8332 29.5466 37.5127 26.0435 34.5802Z" fill="#5E4939"/>
<path d="M23.7468 26.2058C23.7468 27.6616 23.0475 28.8413 22.184 28.8413C21.3204 28.8413 20.6211 27.6616 20.6211 26.2058C20.6211 24.7499 21.3204 23.5703 22.184 23.5703C23.0475 23.5703 23.7468 24.7499 23.7468 26.2058Z" fill="#303030"/>
<path d="M39.3796 26.2058C39.3796 27.6616 38.6803 28.8413 37.8168 28.8413C36.9532 28.8413 36.2539 27.6616 36.2539 26.2058C36.2539 24.7499 36.9532 23.5703 37.8168 23.5703C38.6803 23.5703 39.3796 24.7499 39.3796 26.2058Z" fill="#303030"/>
</svg>
