<svg width="60" height="60" viewBox="0 0 60 60" fill="none" xmlns="http://www.w3.org/2000/svg">
<circle cx="30" cy="30" r="25" fill="white"/>
<path d="M38.0206 32.6988C38.2421 32.6739 38.369 32.9476 38.3665 33.1517C38.3565 34.0949 38.1052 35.058 37.6199 36.0137C37.1595 36.8921 36.5 37.7084 35.7111 38.3754C34.1457 39.6844 32.0652 40.4385 30.0022 40.4459C27.9017 40.4857 25.8038 39.7292 24.2534 38.3878C22.6432 37.0116 21.6627 35.0555 21.6328 33.1567C21.6304 32.9402 21.7747 32.659 22.0161 32.7038C22.2152 32.7386 22.377 33.0099 22.5238 33.1318C22.7502 33.3209 22.9842 33.4976 23.2256 33.6669C23.7059 34.0053 24.2086 34.3089 24.7287 34.5852C26.64 35.6055 28.8051 36.1555 30.9752 35.9664C32.3564 35.8469 33.6978 35.4313 34.9297 34.7992C35.6688 34.4209 36.3706 33.968 37.0301 33.4628C37.2814 33.2712 37.6921 32.7585 38.0007 32.6988C38.0081 32.6988 38.0131 32.6988 38.0206 32.6963V32.6988Z" fill="#5E4939"/>
<path d="M45 45C53.2843 36.7157 53.2843 23.2843 45 15C36.7157 6.71573 23.2843 6.71573 15 15C6.71573 23.2843 6.71573 36.7157 15 45C23.2843 53.2843 36.7157 53.2843 45 45Z" fill="#97BAFF"/>
<path opacity="0.1" d="M41.0978 11.896C43.2106 15.1935 44.4351 19.1156 44.4351 23.3214C44.4351 35.0355 34.9384 44.5346 23.2219 44.5346C19.1529 44.5346 15.3528 43.3873 12.125 41.4014C15.8953 47.287 22.4927 51.1868 30.0009 51.1868C41.715 51.1868 51.2141 41.6901 51.2141 29.9735C51.2141 22.3259 47.1676 15.6265 41.1003 11.8936L41.0978 11.896Z" fill="#1A191D"/>
<path opacity="0.5" d="M11.6689 32.2401C11.6689 21.3622 20.4862 12.545 31.3641 12.545C37.7225 12.545 43.3743 15.5587 46.9753 20.2349C43.5733 14.3318 37.1999 10.3574 29.8983 10.3574C19.0204 10.3574 10.2031 19.1747 10.2031 30.0526C10.2031 34.5719 11.7262 38.7354 14.287 42.0578C12.6221 39.1685 11.6689 35.8163 11.6689 32.2426V32.2401Z" fill="white"/>
<path d="M34.4803 38.5291C33.2733 37.4839 31.6382 36.8941 30.0007 36.9239C28.3906 36.9289 26.7705 37.5187 25.551 38.5366C24.9363 39.0567 24.4212 39.6913 24.0628 40.3782C23.6845 41.1223 23.4879 41.8739 23.4805 42.608C23.4805 42.7847 23.59 42.9415 23.7542 42.9987C23.921 43.056 24.1051 43.0012 24.2121 42.8619C24.6526 42.2944 25.0682 41.8415 25.4838 41.4831C25.9318 41.1024 26.4071 40.7863 26.8974 40.5399C27.8754 40.0522 28.953 39.7909 30.0181 39.7859C31.1107 39.7784 32.1459 40.0223 33.1016 40.52C34.0846 41.0227 34.988 41.8116 35.7843 42.8594C35.864 42.9639 35.9859 43.0211 36.1103 43.0211C36.1551 43.0211 36.1999 43.0137 36.2447 42.9987C36.4115 42.9415 36.5235 42.7822 36.521 42.6055C36.4986 41.1273 35.7346 39.6017 34.4778 38.5266L34.4803 38.5291Z" fill="#5E4939"/>
<path d="M45.2682 33.4368C44.9895 33.3547 44.7207 33.2801 44.4445 33.2029C43.8696 33.0412 43.3271 32.8893 42.8045 32.7077C42.018 32.4414 41.3113 32.1403 40.6443 31.7894C39.9425 31.4186 39.3054 31.003 38.6932 30.5227C38.0238 30.0025 37.4041 29.3953 36.8317 28.8179C36.772 28.7582 36.6799 28.7408 36.6028 28.7756C36.5256 28.8105 36.4758 28.8901 36.4808 28.9747C36.5256 29.8731 36.879 30.8014 37.5061 31.66C38.0785 32.4339 38.8425 33.0835 39.721 33.5439C40.5448 33.9769 41.4681 34.2432 42.3938 34.3129L42.5008 34.3203C42.6303 34.3278 42.7572 34.3303 42.8816 34.3303C43.7725 34.3303 44.5813 34.1611 45.2956 33.8226C45.3727 33.7853 45.42 33.7056 45.4126 33.621C45.4051 33.5364 45.3479 33.4642 45.2657 33.4393L45.2682 33.4368Z" fill="#303030"/>
<path d="M23.4004 28.7756C23.3233 28.7408 23.2312 28.7582 23.1715 28.8179C22.5991 29.3978 21.9794 30.005 21.31 30.5251C20.7002 31.0055 20.0607 31.4186 19.3589 31.7919C18.6919 32.1428 17.9851 32.4439 17.1987 32.7102C16.6761 32.8918 16.1336 33.0436 15.5487 33.2079C15.2849 33.2826 15.0137 33.3572 14.7374 33.4393C14.6553 33.4642 14.5981 33.5364 14.5906 33.621C14.5831 33.7056 14.6304 33.7878 14.7076 33.8226C15.4218 34.1586 16.2331 34.3303 17.1216 34.3303C17.246 34.3303 17.3729 34.3278 17.5023 34.3203L17.6093 34.3129C18.5351 34.2432 19.4609 33.9769 20.2821 33.5439C21.1581 33.086 21.9247 32.4339 22.497 31.66C23.1242 30.8039 23.4801 29.8756 23.5224 28.9747C23.5273 28.8901 23.4776 28.8105 23.4004 28.7756Z" fill="#303030"/>
</svg>
